<svg id="svg" version="1.1" xmlns="http://www.w3.org/2000/svg" xmlns:xlink="http://www.w3.org/1999/xlink" width="400" height="400" viewBox="0, 0, 400,400"><g id="svgg"><path id="path0" d="M74.490 125.971 C 69.957 127.524,68.490 131.587,70.041 138.294 C 71.099 142.875,72.001 146.362,72.395 147.400 C 72.561 147.840,73.269 150.000,73.967 152.200 C 74.665 154.400,75.391 156.560,75.580 157.000 C 75.769 157.440,76.513 159.330,77.233 161.200 C 80.226 168.970,87.979 185.568,91.340 191.400 C 91.847 192.280,92.809 193.990,93.477 195.200 C 97.087 201.738,101.967 209.782,105.661 215.285 C 106.947 217.201,108.000 218.956,108.000 219.185 C 108.000 219.413,108.137 219.600,108.305 219.600 C 108.473 219.600,108.788 219.938,109.005 220.350 C 110.094 222.419,120.353 236.731,121.897 238.335 C 122.180 238.629,122.904 239.527,123.506 240.332 C 126.077 243.768,138.050 255.699,141.594 258.355 C 142.361 258.930,143.441 259.790,143.994 260.267 C 149.216 264.769,164.104 273.570,170.600 275.994 C 171.858 276.464,173.735 277.260,174.495 277.647 C 174.877 277.841,175.541 278.000,175.971 278.000 C 176.401 278.000,176.851 278.159,176.971 278.354 C 177.092 278.549,177.687 278.804,178.295 278.921 C 178.903 279.038,180.030 279.319,180.800 279.545 C 197.231 284.361,217.737 284.076,222.600 278.963 C 224.711 276.743,224.800 275.891,224.800 257.825 C 224.800 246.472,224.942 240.885,225.250 240.119 C 226.261 237.604,226.602 237.174,228.192 236.404 C 231.297 234.901,236.777 235.606,241.089 238.062 C 241.920 238.536,243.279 239.291,244.110 239.741 C 244.940 240.191,245.930 240.843,246.310 241.190 C 246.689 241.538,247.630 242.258,248.400 242.792 C 249.170 243.325,249.890 243.863,250.000 243.986 C 250.110 244.110,251.190 245.016,252.400 245.999 C 257.318 249.997,265.843 258.332,272.210 265.367 C 289.388 284.349,286.466 283.000,310.400 283.000 C 329.955 283.000,329.856 283.009,332.744 280.883 C 337.581 277.319,335.264 267.341,327.340 257.609 C 327.068 257.274,325.980 255.830,324.924 254.400 C 323.868 252.970,322.621 251.350,322.154 250.800 C 321.687 250.250,319.805 248.000,317.972 245.800 C 316.138 243.600,314.535 241.710,314.408 241.600 C 314.282 241.490,313.196 240.230,311.995 238.800 C 310.794 237.370,305.903 232.240,301.126 227.400 C 285.445 211.511,285.041 210.489,290.944 201.600 C 292.039 199.950,293.061 198.510,293.214 198.400 C 293.721 198.035,310.000 173.210,310.000 172.801 C 310.000 172.580,310.135 172.399,310.300 172.397 C 310.465 172.395,310.796 171.990,311.035 171.497 C 311.274 171.004,312.423 169.070,313.590 167.200 C 321.249 154.918,326.449 144.861,329.100 137.200 C 330.371 133.528,330.027 129.050,328.357 127.521 C 325.988 125.353,324.531 125.200,306.235 125.200 C 289.357 125.200,288.264 125.288,284.875 126.921 C 281.785 128.409,281.201 129.321,275.742 141.200 C 274.248 144.452,269.165 154.534,267.878 156.800 C 267.440 157.570,266.542 159.190,265.882 160.400 C 263.687 164.424,260.212 170.198,259.904 170.333 C 259.737 170.407,259.600 170.638,259.600 170.847 C 259.600 171.056,258.307 173.156,256.726 175.513 C 243.021 195.958,231.675 205.612,227.100 200.723 C 224.760 198.222,224.800 198.853,224.798 164.506 C 224.796 143.962,224.651 132.443,224.379 131.400 C 223.494 128.003,222.183 126.421,219.611 125.650 C 217.411 124.991,170.058 125.019,168.519 125.680 C 163.018 128.043,162.310 132.495,166.591 137.800 C 168.983 140.764,171.856 145.385,172.684 147.600 C 173.498 149.778,173.906 151.213,174.759 154.906 C 175.386 157.614,175.372 208.004,174.745 209.972 C 173.689 213.283,172.450 214.400,169.834 214.400 C 162.428 214.400,148.600 196.685,135.486 170.400 C 132.205 163.824,130.948 161.149,128.957 156.500 C 127.498 153.094,127.092 152.134,126.759 151.300 C 126.562 150.805,126.220 149.950,126.000 149.400 C 125.780 148.850,125.444 147.995,125.254 147.500 C 125.063 147.005,124.721 146.150,124.493 145.600 C 124.265 145.050,123.718 143.610,123.278 142.400 C 122.838 141.190,122.173 139.390,121.801 138.400 C 121.429 137.410,120.861 135.825,120.539 134.877 C 118.974 130.276,115.717 126.520,112.642 125.771 C 109.620 125.035,76.718 125.207,74.490 125.971 " stroke="none" fill="#fbfbfc" fill-rule="evenodd"></path><path id="path1" d="M121.574 0.160 C 121.467 0.267,118.549 0.396,115.090 0.447 C 111.463 0.501,108.800 0.701,108.800 0.919 C 108.800 1.127,108.516 1.062,108.170 0.775 C 107.647 0.341,107.476 0.350,107.170 0.826 C 106.860 1.307,106.743 1.311,106.448 0.855 C 106.243 0.537,106.035 0.481,105.948 0.721 C 105.867 0.947,104.450 1.181,102.800 1.242 C 101.150 1.302,99.385 1.497,98.877 1.675 C 98.288 1.881,98.044 1.853,98.201 1.599 C 98.336 1.379,98.066 1.200,97.600 1.200 C 97.134 1.200,96.864 1.380,97.000 1.600 C 97.153 1.847,96.361 2.016,94.924 2.043 C 91.302 2.110,90.234 2.203,89.777 2.488 C 89.544 2.634,88.194 2.789,86.777 2.832 C 85.359 2.876,83.916 3.057,83.569 3.233 C 83.222 3.410,81.998 3.597,80.848 3.650 C 79.698 3.702,78.667 3.892,78.555 4.072 C 78.444 4.253,77.499 4.400,76.456 4.400 C 75.413 4.400,74.386 4.574,74.173 4.787 C 73.961 4.999,73.191 5.218,72.463 5.274 C 71.735 5.329,71.052 5.515,70.946 5.687 C 70.840 5.859,69.878 6.000,68.810 6.000 C 67.718 6.000,66.800 6.199,66.716 6.453 C 66.632 6.703,66.005 6.928,65.322 6.953 C 64.638 6.979,64.162 7.135,64.263 7.300 C 64.364 7.465,63.987 7.600,63.424 7.600 C 62.861 7.600,62.400 7.802,62.400 8.049 C 62.400 8.359,62.215 8.344,61.800 8.000 C 61.469 7.726,61.200 7.681,61.200 7.900 C 61.200 8.262,58.253 9.012,57.470 8.849 C 57.289 8.811,57.255 8.965,57.394 9.190 C 57.533 9.416,57.313 9.600,56.904 9.600 C 56.495 9.600,55.918 9.825,55.621 10.100 C 55.190 10.500,55.139 10.500,55.367 10.097 C 55.736 9.443,53.615 10.297,52.964 11.064 C 52.724 11.347,52.149 11.506,51.687 11.417 C 51.130 11.309,50.912 11.425,51.040 11.761 C 51.178 12.120,50.854 12.227,49.917 12.130 C 48.851 12.020,48.752 12.065,49.400 12.369 C 50.132 12.712,50.110 12.746,49.149 12.772 C 48.571 12.787,47.888 13.053,47.632 13.362 C 47.375 13.671,46.858 13.878,46.483 13.822 C 46.107 13.765,45.485 14.080,45.100 14.521 C 44.715 14.962,44.395 15.160,44.388 14.961 C 44.381 14.763,44.190 14.919,43.963 15.308 C 43.736 15.698,43.382 15.912,43.175 15.785 C 42.969 15.657,42.800 15.729,42.800 15.945 C 42.800 16.160,42.260 16.455,41.600 16.600 C 40.940 16.745,40.400 17.029,40.400 17.232 C 40.400 17.434,40.119 17.600,39.776 17.600 C 39.433 17.600,39.264 17.780,39.400 18.000 C 39.620 18.356,39.341 18.473,38.536 18.364 C 38.391 18.344,38.110 18.618,37.911 18.973 C 37.713 19.327,37.369 19.504,37.146 19.367 C 36.923 19.229,36.278 19.675,35.713 20.358 C 35.147 21.041,34.350 21.600,33.942 21.600 C 33.277 21.600,33.015 22.031,33.153 22.900 C 33.179 23.065,32.930 23.200,32.600 23.200 C 32.270 23.200,32.000 23.350,32.000 23.532 C 32.000 23.715,31.556 24.102,31.014 24.393 C 30.471 24.683,30.122 25.073,30.237 25.260 C 30.353 25.447,30.167 25.600,29.824 25.600 C 29.481 25.600,29.200 25.791,29.200 26.024 C 29.200 26.257,28.989 26.317,28.732 26.158 C 28.417 25.964,28.348 26.087,28.519 26.534 C 28.704 27.016,28.558 27.200,27.987 27.200 C 27.287 27.200,27.018 27.612,27.148 28.486 C 27.171 28.643,26.930 28.671,26.612 28.549 C 26.229 28.402,25.946 28.676,25.774 29.361 C 25.631 29.929,25.380 30.311,25.216 30.210 C 25.051 30.108,24.715 30.469,24.467 31.013 C 24.220 31.556,23.833 32.000,23.609 32.000 C 23.384 32.000,23.200 32.270,23.200 32.600 C 23.200 32.930,23.065 33.179,22.900 33.153 C 22.061 33.020,21.600 33.264,21.600 33.840 C 21.600 34.191,21.060 34.983,20.400 35.600 C 19.740 36.217,19.194 36.964,19.187 37.260 C 19.168 38.061,18.171 39.233,17.796 38.894 C 17.618 38.732,17.607 38.834,17.771 39.119 C 17.954 39.436,17.678 40.031,17.060 40.649 C 16.503 41.206,16.147 41.917,16.267 42.230 C 16.400 42.578,16.235 42.800,15.843 42.800 C 15.467 42.800,15.200 43.132,15.200 43.600 C 15.200 44.040,15.020 44.400,14.800 44.400 C 14.580 44.400,14.400 44.850,14.400 45.400 C 14.400 45.950,14.220 46.400,14.000 46.400 C 13.780 46.400,13.600 46.681,13.600 47.024 C 13.600 47.393,13.412 47.531,13.138 47.362 C 12.866 47.194,12.784 47.251,12.939 47.502 C 13.300 48.085,12.808 49.252,12.327 48.955 C 12.092 48.810,12.018 49.218,12.139 49.989 C 12.285 50.911,12.200 51.209,11.834 51.068 C 11.477 50.931,11.354 51.275,11.419 52.233 C 11.469 52.980,11.359 53.498,11.175 53.384 C 10.767 53.132,10.004 54.488,9.743 55.927 C 9.637 56.508,9.408 57.077,9.232 57.191 C 9.057 57.306,8.962 57.714,9.021 58.098 C 9.080 58.483,8.965 58.898,8.764 59.022 C 8.564 59.146,8.400 59.687,8.400 60.224 C 8.400 60.761,8.175 61.203,7.900 61.206 C 7.561 61.210,7.593 61.349,8.000 61.637 C 8.452 61.956,8.476 62.111,8.100 62.264 C 7.825 62.375,7.600 62.912,7.600 63.457 C 7.600 64.002,7.457 64.359,7.283 64.251 C 7.109 64.144,6.923 64.621,6.870 65.312 C 6.818 66.003,6.600 66.676,6.387 66.808 C 6.174 66.940,6.029 67.793,6.065 68.705 C 6.100 69.616,5.959 70.595,5.750 70.881 C 5.541 71.166,5.314 71.940,5.246 72.600 C 5.178 73.260,4.915 74.060,4.661 74.377 C 4.305 74.822,4.314 74.885,4.700 74.653 C 4.975 74.488,5.200 74.543,5.200 74.776 C 5.200 75.009,5.020 75.200,4.800 75.200 C 4.580 75.200,4.400 75.909,4.400 76.776 C 4.400 77.643,4.253 78.444,4.072 78.555 C 3.892 78.667,3.702 79.698,3.650 80.848 C 3.597 81.998,3.410 83.222,3.233 83.569 C 3.057 83.916,2.877 85.370,2.834 86.800 C 2.791 88.230,2.585 89.460,2.378 89.533 C 2.170 89.607,2.000 89.932,2.000 90.257 C 2.000 90.613,2.198 90.735,2.500 90.565 C 2.900 90.339,2.900 90.390,2.500 90.821 C 2.211 91.133,2.000 92.413,2.000 93.856 C 2.000 95.229,1.847 96.448,1.659 96.563 C 1.472 96.679,1.290 98.796,1.255 101.266 C 1.211 104.342,1.035 105.858,0.695 106.073 C 0.303 106.322,0.304 106.389,0.700 106.394 C 0.975 106.397,1.200 106.681,1.200 107.024 C 1.200 107.367,1.065 107.564,0.900 107.462 C 0.322 107.106,0.200 123.225,0.200 200.000 C 0.200 276.775,0.322 292.894,0.900 292.538 C 1.174 292.369,1.392 298.614,1.208 301.345 C 1.149 302.206,1.263 302.411,1.665 302.168 C 2.107 301.903,2.109 301.958,1.681 302.488 C 1.331 302.919,1.299 303.214,1.581 303.388 C 1.811 303.531,2.000 304.681,2.000 305.944 C 2.000 307.207,2.170 308.411,2.378 308.620 C 2.586 308.829,2.791 310.485,2.834 312.300 C 2.877 314.115,3.040 315.600,3.195 315.600 C 3.350 315.600,3.510 316.628,3.551 317.884 C 3.592 319.141,3.773 320.266,3.952 320.384 C 4.132 320.503,4.292 320.870,4.309 321.200 C 4.325 321.530,4.376 322.745,4.421 323.900 C 4.467 325.055,4.661 326.000,4.852 326.000 C 5.044 326.000,5.203 326.765,5.206 327.700 C 5.211 328.945,5.316 329.239,5.600 328.800 C 5.874 328.377,5.990 328.926,5.994 330.667 C 5.997 332.023,6.184 333.195,6.408 333.269 C 6.633 333.344,6.858 333.972,6.908 334.664 C 6.959 335.356,7.135 335.839,7.300 335.737 C 7.465 335.636,7.600 336.013,7.600 336.576 C 7.600 337.139,7.802 337.600,8.049 337.600 C 8.342 337.600,8.307 337.836,7.949 338.277 C 7.576 338.737,7.560 338.857,7.900 338.653 C 8.257 338.439,8.400 338.709,8.400 339.600 C 8.400 340.320,8.567 340.744,8.795 340.603 C 9.023 340.462,9.089 340.624,8.951 340.984 C 8.819 341.329,8.956 341.912,9.255 342.282 C 9.721 342.856,9.716 342.903,9.221 342.605 C 8.903 342.413,9.073 342.861,9.600 343.600 C 10.127 344.339,10.327 344.802,10.046 344.628 C 9.700 344.414,9.745 344.720,10.184 345.569 C 10.542 346.260,10.986 346.732,11.172 346.617 C 11.358 346.503,11.468 347.027,11.418 347.783 C 11.363 348.604,11.502 349.126,11.763 349.079 C 12.017 349.033,12.149 349.475,12.079 350.136 C 12.003 350.854,12.113 351.177,12.379 351.013 C 12.611 350.870,12.800 351.044,12.800 351.400 C 12.800 351.811,12.982 351.938,13.300 351.747 C 13.591 351.572,13.550 351.761,13.200 352.200 C 12.850 352.639,12.809 352.828,13.100 352.653 C 13.556 352.379,13.817 353.097,13.637 354.130 C 13.606 354.311,13.765 354.345,13.990 354.206 C 14.221 354.064,14.400 354.323,14.400 354.800 C 14.400 355.266,14.580 355.536,14.800 355.400 C 15.148 355.185,15.390 355.996,15.247 356.900 C 15.221 357.065,15.425 357.155,15.700 357.100 C 15.975 357.045,16.201 357.326,16.203 357.725 C 16.205 358.123,16.571 358.843,17.016 359.325 C 18.199 360.603,19.200 362.282,19.200 362.986 C 19.200 363.324,19.352 363.600,19.539 363.600 C 20.215 363.600,21.600 365.112,21.600 365.851 C 21.600 366.593,23.081 367.861,23.730 367.675 C 23.911 367.623,23.957 367.746,23.831 367.949 C 23.706 368.153,24.142 368.896,24.802 369.602 C 25.461 370.307,26.000 371.065,26.000 371.285 C 26.000 371.505,26.279 371.578,26.621 371.447 C 26.962 371.316,27.141 371.373,27.017 371.572 C 26.725 372.045,27.955 373.275,28.428 372.983 C 28.627 372.859,28.674 373.083,28.532 373.479 C 28.389 373.876,28.410 374.076,28.579 373.924 C 28.747 373.773,29.361 374.093,29.942 374.635 C 32.156 376.700,33.199 377.810,33.200 378.100 C 33.200 378.265,33.391 378.400,33.624 378.400 C 33.857 378.400,33.918 378.175,33.759 377.900 C 33.601 377.625,33.994 377.850,34.634 378.400 C 35.274 378.950,35.858 379.535,35.932 379.700 C 36.006 379.865,36.322 380.000,36.633 380.000 C 36.945 380.000,37.200 380.180,37.200 380.400 C 37.200 380.620,37.481 380.800,37.824 380.800 C 38.167 380.800,38.336 380.980,38.200 381.200 C 38.064 381.420,38.334 381.600,38.800 381.600 C 39.345 381.600,39.544 381.767,39.358 382.068 C 39.164 382.383,39.287 382.452,39.734 382.281 C 40.154 382.119,40.400 382.226,40.400 382.570 C 40.400 383.060,41.102 383.548,42.200 383.820 C 43.259 384.083,44.755 385.115,44.494 385.403 C 44.332 385.582,44.515 385.614,44.900 385.476 C 45.350 385.315,45.600 385.422,45.600 385.777 C 45.600 386.132,45.965 386.289,46.623 386.217 C 47.369 386.135,47.586 386.259,47.427 386.673 C 47.307 386.986,47.373 387.141,47.572 387.017 C 47.772 386.894,48.219 387.076,48.565 387.422 C 48.911 387.768,49.359 387.949,49.561 387.824 C 50.056 387.518,51.246 388.001,50.996 388.407 C 50.886 388.584,51.112 388.678,51.498 388.615 C 51.884 388.551,52.495 388.757,52.855 389.071 C 53.216 389.386,53.891 389.672,54.355 389.707 C 54.820 389.742,55.200 389.942,55.200 390.152 C 55.200 390.362,55.305 390.429,55.433 390.301 C 55.561 390.173,56.288 390.328,57.050 390.647 C 57.812 390.965,58.607 391.119,58.818 390.989 C 59.028 390.859,59.200 390.943,59.200 391.176 C 59.200 391.409,59.751 391.600,60.424 391.600 C 61.097 391.600,61.564 391.735,61.463 391.900 C 61.361 392.065,61.926 392.248,62.719 392.306 C 63.512 392.364,64.259 392.545,64.380 392.708 C 64.501 392.870,65.140 393.065,65.800 393.140 C 66.460 393.216,67.180 393.421,67.400 393.596 C 67.620 393.771,68.610 394.015,69.600 394.139 C 72.907 394.551,74.395 394.884,74.217 395.173 C 74.120 395.330,74.972 395.501,76.111 395.553 C 77.250 395.605,78.319 395.862,78.485 396.124 C 78.700 396.461,78.791 396.425,78.800 396.000 C 78.808 395.623,78.922 395.558,79.106 395.826 C 79.268 396.060,80.205 396.295,81.190 396.347 C 82.174 396.400,83.074 396.568,83.190 396.721 C 83.305 396.875,84.742 397.057,86.382 397.127 C 88.022 397.197,89.552 397.377,89.782 397.527 C 90.241 397.827,90.958 397.889,94.724 397.955 C 96.294 397.983,97.154 398.151,97.000 398.400 C 96.864 398.620,97.134 398.800,97.600 398.800 C 98.171 398.800,98.349 398.637,98.147 398.300 C 97.917 397.918,97.982 397.906,98.423 398.249 C 98.740 398.495,100.527 398.733,102.393 398.776 C 104.259 398.820,105.977 399.015,106.211 399.209 C 107.308 400.120,292.710 400.104,293.808 399.193 C 294.052 398.991,295.950 398.800,298.026 398.770 C 300.169 398.739,302.049 398.517,302.377 398.257 C 302.841 397.890,302.884 397.918,302.600 398.400 C 302.309 398.895,302.352 398.914,302.850 398.512 C 303.199 398.230,304.880 397.991,306.827 397.948 C 308.682 397.906,310.300 397.722,310.422 397.539 C 310.544 397.355,311.984 397.159,313.622 397.103 C 315.260 397.046,316.694 396.875,316.809 396.723 C 316.924 396.571,318.004 396.393,319.209 396.328 C 320.414 396.263,321.494 396.083,321.609 395.929 C 321.724 395.774,322.750 395.605,323.889 395.553 C 325.028 395.501,325.868 395.311,325.756 395.129 C 325.644 394.948,325.921 394.800,326.371 394.800 C 327.458 394.800,330.811 394.003,331.742 393.523 C 332.312 393.229,332.414 393.263,332.183 393.670 C 331.941 394.096,331.988 394.102,332.421 393.700 C 332.718 393.425,333.428 393.200,334.000 393.200 C 334.572 393.200,335.217 393.023,335.433 392.807 C 335.650 392.590,336.478 392.365,337.274 392.307 C 338.071 392.248,338.639 392.065,338.537 391.900 C 338.436 391.735,338.903 391.600,339.576 391.600 C 340.249 391.600,340.800 391.409,340.800 391.176 C 340.800 390.943,340.981 390.865,341.203 391.002 C 341.425 391.139,341.889 390.968,342.235 390.622 C 342.581 390.276,343.038 390.100,343.250 390.231 C 343.462 390.362,343.902 390.248,344.227 389.977 C 344.553 389.707,344.935 389.601,345.076 389.742 C 345.217 389.883,346.145 389.522,347.138 388.940 C 348.131 388.359,349.447 387.897,350.063 387.914 C 350.722 387.933,351.145 387.752,351.091 387.473 C 351.041 387.213,351.401 387.021,351.891 387.047 C 352.381 387.073,352.685 386.938,352.567 386.747 C 352.449 386.556,352.551 386.400,352.793 386.400 C 353.035 386.400,353.620 386.040,354.092 385.600 C 354.849 384.895,355.902 384.584,356.930 384.763 C 357.111 384.794,357.145 384.635,357.006 384.410 C 356.867 384.184,356.943 383.978,357.176 383.950 C 357.409 383.923,357.787 383.878,358.015 383.850 C 358.243 383.822,358.600 383.530,358.808 383.200 C 359.017 382.870,359.191 382.748,359.194 382.929 C 359.197 383.109,359.485 382.973,359.832 382.625 C 360.180 382.277,360.675 382.113,360.932 382.260 C 361.190 382.408,361.268 382.382,361.106 382.204 C 360.734 381.792,361.975 380.830,362.900 380.813 C 363.336 380.805,363.600 380.489,363.600 379.976 C 363.600 379.523,363.768 379.256,363.972 379.383 C 364.177 379.509,364.455 379.435,364.589 379.217 C 364.724 379.000,365.431 378.538,366.162 378.191 C 366.892 377.845,367.690 377.120,367.936 376.581 C 368.182 376.041,368.559 375.600,368.773 375.600 C 368.988 375.600,369.603 375.161,370.139 374.624 C 370.676 374.088,371.253 373.773,371.421 373.924 C 371.590 374.076,371.615 373.887,371.478 373.505 C 371.341 373.122,371.357 372.829,371.514 372.852 C 372.388 372.982,372.800 372.713,372.800 372.013 C 372.800 371.434,372.985 371.292,373.500 371.476 C 373.885 371.614,374.076 371.590,373.924 371.421 C 373.773 371.253,374.088 370.676,374.624 370.139 C 375.161 369.603,375.600 368.988,375.600 368.773 C 375.600 368.559,376.041 368.182,376.581 367.936 C 377.120 367.690,377.845 366.892,378.191 366.162 C 378.538 365.431,379.000 364.724,379.217 364.589 C 379.435 364.455,379.509 364.177,379.383 363.972 C 379.256 363.768,379.523 363.600,379.976 363.600 C 380.593 363.600,380.800 363.343,380.800 362.576 C 380.800 361.996,380.973 361.660,381.200 361.800 C 381.420 361.936,381.600 361.765,381.600 361.420 C 381.600 361.075,382.133 360.235,382.785 359.552 C 383.437 358.870,383.956 358.197,383.938 358.056 C 383.838 357.273,384.049 356.783,384.395 356.997 C 384.622 357.137,384.689 356.977,384.554 356.624 C 384.413 356.256,384.585 355.904,384.981 355.752 C 385.347 355.612,385.553 355.255,385.440 354.960 C 385.327 354.665,385.496 354.161,385.817 353.840 C 386.138 353.519,386.400 352.974,386.400 352.629 C 386.400 352.283,386.580 352.000,386.800 352.000 C 387.020 352.000,387.179 351.865,387.153 351.700 C 386.988 350.659,387.217 350.207,387.608 350.800 C 387.908 351.255,387.984 351.104,387.922 350.173 C 387.873 349.434,388.200 348.443,388.744 347.679 C 389.241 346.981,389.696 346.003,389.756 345.505 C 389.816 345.007,390.164 343.935,390.529 343.122 C 390.894 342.310,391.085 341.365,390.953 341.022 C 390.822 340.680,390.914 340.400,391.157 340.400 C 391.401 340.400,391.600 339.939,391.600 339.376 C 391.600 338.813,391.744 338.442,391.920 338.551 C 392.096 338.659,392.283 338.104,392.336 337.317 C 392.389 336.530,392.605 335.564,392.816 335.169 C 393.027 334.775,393.203 333.946,393.206 333.326 C 393.210 332.546,393.318 332.366,393.555 332.740 C 393.774 333.087,393.911 332.597,393.935 331.373 C 393.956 330.325,394.159 329.281,394.387 329.053 C 394.614 328.826,394.800 327.945,394.800 327.096 C 394.800 325.968,394.934 325.634,395.300 325.853 C 395.591 326.028,395.550 325.839,395.200 325.400 C 394.870 324.986,394.796 324.764,395.035 324.907 C 395.317 325.075,395.493 324.583,395.535 323.507 C 395.571 322.594,395.801 321.723,396.045 321.572 C 396.354 321.381,396.323 321.230,395.945 321.080 C 395.558 320.926,395.545 320.854,395.900 320.832 C 396.229 320.811,396.400 320.116,396.400 318.800 C 396.400 317.700,396.550 316.800,396.733 316.800 C 396.916 316.800,397.073 316.035,397.082 315.100 C 397.119 311.132,397.217 309.963,397.500 310.138 C 397.665 310.239,397.854 308.593,397.920 306.479 C 397.985 304.365,398.176 302.447,398.342 302.217 C 398.509 301.988,398.696 299.910,398.758 297.600 C 398.819 295.290,399.021 293.344,399.206 293.276 C 400.154 292.928,400.105 107.035,399.158 106.719 C 398.942 106.647,398.745 104.360,398.711 101.518 C 398.677 98.728,398.504 96.536,398.325 96.646 C 398.146 96.757,397.977 95.757,397.950 94.424 C 397.876 90.851,397.853 90.619,397.545 90.396 C 397.390 90.283,397.206 88.663,397.136 86.796 C 397.066 84.928,396.875 83.301,396.711 83.180 C 396.547 83.059,396.381 82.114,396.341 81.080 C 396.302 80.040,396.076 79.197,395.835 79.194 C 395.596 79.191,395.670 79.013,396.000 78.800 C 396.400 78.542,396.433 78.410,396.100 78.406 C 395.784 78.402,395.600 77.810,395.600 76.800 C 395.600 75.920,395.420 75.200,395.200 75.200 C 394.980 75.200,394.800 75.009,394.800 74.776 C 394.800 74.543,394.980 74.464,395.200 74.600 C 395.420 74.736,395.600 74.657,395.600 74.424 C 395.600 74.191,395.420 74.000,395.200 74.000 C 394.980 74.000,394.800 73.628,394.800 73.174 C 394.800 72.719,394.617 72.005,394.393 71.587 C 394.169 71.169,393.965 69.904,393.940 68.776 C 393.911 67.477,393.769 66.922,393.553 67.262 C 393.328 67.617,393.210 67.318,393.206 66.380 C 393.203 65.599,393.023 64.783,392.807 64.567 C 392.590 64.350,392.365 63.522,392.307 62.726 C 392.248 61.929,392.065 61.361,391.900 61.463 C 391.735 61.564,391.600 61.097,391.600 60.424 C 391.600 59.751,391.426 59.200,391.213 59.200 C 390.999 59.200,390.929 58.930,391.055 58.600 C 391.182 58.270,391.086 58.000,390.843 58.000 C 390.599 58.000,390.400 57.809,390.400 57.576 C 390.400 57.343,390.615 57.286,390.879 57.449 C 391.142 57.611,390.958 57.184,390.470 56.498 C 389.982 55.813,389.608 55.105,389.639 54.926 C 389.807 53.948,389.542 53.248,389.071 53.428 C 388.687 53.575,388.561 53.248,388.611 52.235 C 388.652 51.413,388.502 50.873,388.245 50.920 C 387.994 50.966,387.847 50.491,387.898 49.800 C 387.973 48.789,387.929 48.726,387.622 49.400 C 387.277 50.155,386.941 48.744,387.163 47.470 C 387.194 47.289,387.035 47.255,386.810 47.394 C 386.584 47.533,386.400 47.444,386.400 47.195 C 386.400 46.946,386.128 46.471,385.796 46.139 C 385.464 45.807,385.303 45.357,385.438 45.138 C 385.573 44.920,385.292 44.324,384.813 43.814 C 384.334 43.304,383.897 42.583,383.843 42.211 C 383.788 41.840,383.486 41.373,383.172 41.174 C 382.857 40.975,382.742 40.809,382.916 40.806 C 383.090 40.803,382.785 40.317,382.238 39.727 C 381.690 39.137,381.334 38.507,381.445 38.327 C 381.556 38.147,381.457 38.000,381.224 38.000 C 380.991 38.000,380.800 37.640,380.800 37.200 C 380.800 36.760,380.648 36.400,380.461 36.400 C 380.064 36.400,378.851 35.328,377.999 34.223 C 377.467 33.533,377.467 33.482,378.000 33.770 C 378.330 33.947,377.970 33.464,377.200 32.696 C 374.765 30.266,373.662 28.872,373.935 28.567 C 374.081 28.405,373.885 28.386,373.500 28.524 C 373.031 28.692,372.800 28.575,372.800 28.171 C 372.800 27.838,372.440 27.180,372.000 26.708 C 371.560 26.236,371.200 25.992,371.200 26.167 C 371.200 26.342,370.678 25.926,370.040 25.242 C 369.401 24.559,368.752 24.000,368.597 24.000 C 368.442 24.000,367.960 23.548,367.526 22.996 C 367.091 22.444,366.603 22.074,366.441 22.175 C 366.279 22.275,365.893 22.007,365.585 21.579 C 365.276 21.150,364.836 20.800,364.608 20.800 C 364.379 20.800,363.968 20.440,363.693 20.000 C 363.418 19.560,362.824 19.200,362.373 19.200 C 361.922 19.200,361.664 19.020,361.800 18.800 C 361.936 18.580,361.756 18.400,361.400 18.400 C 361.013 18.400,360.867 18.215,361.038 17.938 C 361.202 17.673,361.149 17.584,360.914 17.730 C 360.689 17.869,360.004 17.553,359.392 17.027 C 358.780 16.501,358.037 16.164,357.740 16.278 C 357.443 16.392,357.200 16.240,357.200 15.940 C 357.200 15.641,356.615 15.151,355.900 14.853 C 355.185 14.555,354.118 14.113,353.529 13.871 C 352.940 13.629,352.569 13.243,352.706 13.015 C 352.842 12.787,352.614 12.870,352.200 13.200 C 351.761 13.550,351.572 13.591,351.747 13.300 C 351.932 12.992,351.825 12.800,351.469 12.800 C 350.640 12.800,348.766 11.768,349.060 11.473 C 349.197 11.337,348.915 11.301,348.434 11.393 C 347.939 11.489,347.471 11.329,347.354 11.025 C 347.238 10.721,346.813 10.576,346.374 10.691 C 345.948 10.802,345.600 10.712,345.600 10.489 C 345.600 10.267,345.321 9.978,344.979 9.847 C 344.567 9.689,344.457 9.769,344.651 10.083 C 344.813 10.344,344.372 10.150,343.673 9.652 C 342.858 9.072,342.113 8.837,341.600 9.000 C 341.160 9.140,340.800 9.100,340.800 8.912 C 340.800 8.724,340.398 8.540,339.906 8.503 C 339.414 8.466,338.949 8.248,338.873 8.018 C 338.796 7.788,338.018 7.600,337.143 7.600 C 336.159 7.600,335.649 7.444,335.806 7.190 C 335.945 6.965,335.911 6.806,335.730 6.837 C 334.431 7.063,331.885 6.707,332.600 6.400 C 333.188 6.148,332.842 6.049,331.300 6.028 C 330.145 6.013,329.200 5.865,329.199 5.700 C 329.199 5.535,328.540 5.353,327.734 5.295 C 326.929 5.237,326.025 4.987,325.725 4.738 C 325.426 4.489,325.065 4.402,324.924 4.543 C 324.782 4.684,324.907 4.800,325.200 4.800 C 325.493 4.800,325.618 4.916,325.476 5.057 C 325.335 5.198,324.983 5.118,324.694 4.878 C 324.405 4.638,323.366 4.399,322.385 4.347 C 321.403 4.295,320.503 4.111,320.384 3.939 C 320.266 3.767,319.141 3.592,317.884 3.551 C 316.628 3.510,315.600 3.354,315.600 3.204 C 315.600 3.054,314.479 2.891,313.109 2.841 C 311.738 2.792,310.523 2.627,310.409 2.475 C 310.294 2.323,308.762 2.139,307.004 2.068 C 305.247 1.996,303.693 1.751,303.553 1.523 C 303.392 1.264,303.228 1.313,303.113 1.655 C 302.964 2.100,302.816 2.106,302.310 1.688 C 301.891 1.343,300.485 1.195,297.997 1.235 C 295.260 1.278,294.216 1.152,293.959 0.747 C 293.706 0.348,293.611 0.335,293.606 0.700 C 293.603 0.975,293.195 1.197,292.700 1.194 C 291.966 1.189,291.911 1.114,292.400 0.788 C 292.838 0.497,292.405 0.382,290.800 0.365 C 275.950 0.204,121.717 0.017,121.574 0.160 M113.800 125.200 C 113.936 125.420,114.386 125.600,114.800 125.600 C 117.092 125.600,120.519 131.017,123.023 138.600 C 123.822 141.020,124.639 143.405,124.838 143.900 C 125.037 144.395,125.356 145.205,125.546 145.700 C 125.737 146.195,126.097 147.095,126.346 147.700 C 126.596 148.305,127.001 149.295,127.247 149.900 C 127.492 150.505,127.852 151.313,128.047 151.695 C 128.241 152.077,128.400 152.662,128.400 152.995 C 128.400 153.328,128.580 153.600,128.800 153.600 C 129.020 153.600,129.200 153.872,129.200 154.205 C 129.200 154.538,129.380 155.168,129.600 155.605 C 129.820 156.042,130.180 156.758,130.400 157.195 C 130.620 157.632,130.800 158.262,130.800 158.595 C 130.800 158.928,130.980 159.200,131.200 159.200 C 131.420 159.200,131.600 159.560,131.600 160.000 C 131.600 160.440,131.780 160.800,132.000 160.800 C 132.220 160.800,132.400 161.160,132.400 161.600 C 132.400 162.040,132.580 162.400,132.800 162.400 C 133.020 162.400,133.200 162.652,133.200 162.959 C 133.200 163.267,133.740 164.545,134.400 165.800 C 135.060 167.055,135.600 168.333,135.600 168.641 C 135.600 168.948,135.780 169.200,136.000 169.200 C 136.220 169.200,136.400 169.560,136.400 170.000 C 136.400 170.440,136.580 170.800,136.800 170.800 C 137.020 170.800,137.200 171.145,137.200 171.567 C 137.200 171.988,137.349 172.393,137.531 172.467 C 137.714 172.540,138.744 174.400,139.822 176.600 C 140.899 178.800,141.875 180.690,141.990 180.800 C 142.380 181.172,143.648 183.395,143.871 184.100 C 143.993 184.485,144.252 184.800,144.447 184.800 C 144.641 184.800,144.800 185.078,144.800 185.417 C 144.800 185.756,145.160 186.420,145.600 186.892 C 146.040 187.364,146.400 187.987,146.400 188.275 C 146.400 188.564,146.580 188.800,146.800 188.800 C 147.020 188.800,147.200 189.036,147.200 189.325 C 147.200 189.613,147.560 190.236,148.000 190.708 C 148.440 191.180,148.800 191.720,148.800 191.908 C 148.800 192.096,149.115 192.598,149.500 193.025 C 149.885 193.451,150.455 194.295,150.768 194.900 C 151.080 195.505,151.485 196.000,151.668 196.000 C 151.850 196.000,152.000 196.270,152.000 196.600 C 152.000 196.930,152.141 197.200,152.314 197.200 C 152.486 197.200,152.931 197.714,153.303 198.343 C 153.674 198.972,154.703 200.364,155.589 201.436 C 156.475 202.508,157.200 203.531,157.200 203.710 C 157.200 204.857,166.417 212.800,167.748 212.800 C 168.081 212.800,168.464 212.980,168.600 213.200 C 169.279 214.299,173.200 212.619,173.200 211.229 C 173.200 210.993,173.380 210.800,173.600 210.800 C 173.831 210.800,174.000 209.541,174.000 207.824 C 174.000 206.187,174.180 204.736,174.400 204.600 C 174.659 204.440,174.800 196.537,174.800 182.200 C 174.800 167.863,174.659 159.960,174.400 159.800 C 174.180 159.664,174.000 158.314,174.000 156.800 C 174.000 155.286,173.820 153.936,173.600 153.800 C 173.380 153.664,173.200 153.021,173.200 152.371 C 173.200 151.721,172.992 150.787,172.738 150.295 C 171.742 148.369,171.600 147.983,171.600 147.205 C 171.600 146.762,171.420 146.400,171.200 146.400 C 170.980 146.400,170.800 146.040,170.800 145.600 C 170.800 145.160,170.650 144.800,170.468 144.800 C 170.285 144.800,169.881 144.305,169.570 143.700 C 169.260 143.095,168.689 142.309,168.303 141.953 C 167.916 141.597,167.595 141.147,167.589 140.953 C 167.582 140.759,166.895 139.834,166.061 138.897 C 162.082 134.427,161.640 130.238,164.775 126.700 C 165.311 126.095,165.986 125.600,166.275 125.600 C 166.564 125.600,166.800 125.420,166.800 125.200 C 166.800 124.561,220.560 124.659,221.701 125.300 C 222.981 126.019,224.399 127.688,224.400 128.476 C 224.400 128.848,224.580 129.264,224.800 129.400 C 225.020 129.536,225.200 130.886,225.200 132.400 C 225.200 133.914,225.380 135.264,225.600 135.400 C 225.861 135.561,226.000 146.471,226.000 166.824 C 226.000 187.341,226.137 198.000,226.400 198.000 C 226.620 198.000,226.800 198.294,226.800 198.653 C 226.800 200.290,229.827 201.700,231.505 200.847 C 231.887 200.652,232.740 200.247,233.400 199.947 C 234.060 199.646,235.048 198.995,235.596 198.500 C 236.144 198.005,236.712 197.600,236.859 197.600 C 237.325 197.600,243.831 191.073,245.232 189.200 C 245.972 188.210,246.897 187.109,247.289 186.753 C 247.680 186.397,248.004 185.947,248.009 185.753 C 248.014 185.559,248.649 184.700,249.420 183.844 C 250.190 182.989,251.125 181.774,251.497 181.144 C 251.868 180.515,252.314 180.000,252.486 180.000 C 252.659 180.000,252.800 179.730,252.800 179.400 C 252.800 179.070,252.950 178.800,253.132 178.800 C 253.315 178.800,253.719 178.305,254.030 177.700 C 254.340 177.095,254.911 176.309,255.297 175.953 C 255.684 175.597,256.000 175.052,256.000 174.741 C 256.000 174.431,256.360 173.917,256.800 173.600 C 257.240 173.283,257.600 172.703,257.600 172.312 C 257.600 171.920,257.750 171.600,257.932 171.600 C 258.115 171.600,258.518 171.105,258.828 170.500 C 259.138 169.895,260.294 167.866,261.396 165.990 C 262.498 164.115,263.670 162.045,263.999 161.390 C 264.329 160.736,264.689 160.110,264.799 160.000 C 265.195 159.606,266.454 157.387,266.671 156.700 C 266.793 156.315,267.052 156.000,267.247 156.000 C 267.441 156.000,267.600 155.640,267.600 155.200 C 267.600 154.760,267.780 154.400,268.000 154.400 C 268.220 154.400,268.400 154.040,268.400 153.600 C 268.400 153.160,268.580 152.800,268.800 152.800 C 269.020 152.800,269.200 152.440,269.200 152.000 C 269.200 151.560,269.380 151.200,269.600 151.200 C 269.820 151.200,270.000 150.840,270.000 150.400 C 270.000 149.960,270.135 149.599,270.300 149.599 C 270.465 149.598,271.050 148.608,271.600 147.400 C 272.150 146.192,272.735 145.202,272.900 145.201 C 273.065 145.201,273.200 144.840,273.200 144.400 C 273.200 143.960,273.380 143.600,273.600 143.600 C 273.820 143.600,274.000 143.240,274.000 142.800 C 274.000 142.360,274.180 142.000,274.400 142.000 C 274.620 142.000,274.800 141.655,274.800 141.233 C 274.800 140.812,274.935 140.407,275.100 140.333 C 275.265 140.260,275.742 139.210,276.160 138.000 C 278.602 130.929,282.632 125.600,285.538 125.600 C 286.012 125.600,286.400 125.420,286.400 125.200 C 286.400 124.939,293.263 124.800,306.188 124.800 C 328.746 124.800,328.264 124.730,330.300 128.310 C 330.904 129.372,330.990 136.000,330.400 136.000 C 330.180 136.000,330.000 136.529,330.000 137.176 C 330.000 137.823,329.820 138.464,329.600 138.600 C 329.380 138.736,329.200 139.287,329.200 139.824 C 329.200 140.361,329.020 140.800,328.800 140.800 C 328.580 140.800,328.400 141.149,328.400 141.576 C 328.400 142.003,328.220 142.464,328.000 142.600 C 327.780 142.736,327.600 143.287,327.600 143.824 C 327.600 144.361,327.420 144.800,327.200 144.800 C 326.980 144.800,326.800 145.160,326.800 145.600 C 326.800 146.040,326.620 146.400,326.400 146.400 C 326.180 146.400,326.000 146.760,326.000 147.200 C 326.000 147.640,325.820 148.000,325.600 148.000 C 325.380 148.000,325.200 148.360,325.200 148.800 C 325.200 149.240,325.020 149.600,324.800 149.600 C 324.580 149.600,324.400 149.853,324.400 150.162 C 324.400 150.470,323.815 151.775,323.100 153.062 C 322.385 154.348,321.530 155.940,321.201 156.600 C 320.871 157.260,320.511 157.890,320.401 158.000 C 320.290 158.110,319.763 159.010,319.230 160.000 C 318.696 160.990,318.152 161.890,318.020 162.000 C 317.888 162.110,317.335 163.055,316.791 164.100 C 316.247 165.145,315.666 166.000,315.501 166.000 C 315.335 166.000,315.200 166.193,315.200 166.428 C 315.200 166.663,314.660 167.641,314.000 168.600 C 313.340 169.559,312.800 170.537,312.800 170.772 C 312.800 171.007,312.620 171.200,312.400 171.200 C 312.180 171.200,312.000 171.470,312.000 171.800 C 312.000 172.130,311.820 172.400,311.600 172.400 C 311.380 172.400,311.200 172.670,311.200 173.000 C 311.200 173.330,311.020 173.600,310.800 173.600 C 310.580 173.600,310.400 173.836,310.400 174.125 C 310.400 174.413,310.040 175.036,309.600 175.508 C 309.160 175.980,308.800 176.644,308.800 176.983 C 308.800 177.322,308.650 177.600,308.468 177.600 C 308.285 177.600,307.880 178.095,307.568 178.700 C 307.255 179.305,306.055 181.202,304.900 182.915 C 303.745 184.629,302.800 186.176,302.800 186.353 C 302.800 186.531,302.440 187.002,302.000 187.400 C 301.560 187.798,301.200 188.366,301.200 188.662 C 301.200 188.958,301.050 189.200,300.868 189.200 C 300.685 189.200,300.281 189.695,299.970 190.300 C 299.660 190.905,299.089 191.691,298.703 192.047 C 298.316 192.403,298.000 192.922,298.000 193.200 C 298.000 193.478,297.684 193.997,297.297 194.353 C 296.911 194.709,296.340 195.495,296.030 196.100 C 295.719 196.705,295.315 197.200,295.132 197.200 C 294.950 197.200,294.800 197.425,294.799 197.700 C 294.799 197.975,294.259 198.830,293.600 199.600 C 292.941 200.370,292.401 201.225,292.401 201.500 C 292.400 201.775,292.242 202.000,292.050 202.000 C 291.169 202.000,288.800 207.525,288.800 209.578 C 288.800 211.543,290.892 215.889,292.052 216.333 C 292.243 216.407,292.400 216.624,292.400 216.816 C 292.400 217.008,296.810 221.575,302.200 226.964 C 307.590 232.353,312.000 236.962,312.000 237.207 C 312.000 237.452,312.855 238.496,313.900 239.528 C 314.945 240.560,316.250 241.970,316.800 242.662 C 317.350 243.354,319.218 245.603,320.951 247.660 C 322.684 249.716,324.203 251.669,324.326 252.000 C 324.450 252.330,325.057 253.077,325.675 253.660 C 326.294 254.244,326.800 254.874,326.801 255.060 C 326.801 255.247,327.341 256.030,328.000 256.800 C 328.659 257.570,329.199 258.385,329.199 258.612 C 329.200 258.838,329.560 259.283,330.000 259.600 C 330.440 259.917,330.800 260.329,330.800 260.516 C 330.800 260.703,331.308 261.608,331.928 262.528 C 333.310 264.576,335.600 269.330,335.600 270.151 C 335.600 270.482,335.780 270.864,336.000 271.000 C 336.550 271.340,336.506 277.848,335.946 278.926 C 335.162 280.437,331.944 283.200,330.968 283.200 C 330.462 283.200,329.936 283.380,329.800 283.600 C 329.436 284.189,292.787 284.141,291.319 283.549 C 289.522 282.826,286.617 281.430,286.400 281.186 C 286.290 281.063,285.570 280.528,284.800 279.997 C 283.308 278.970,279.173 274.820,277.071 272.241 C 276.372 271.383,274.540 269.394,273.000 267.819 C 271.460 266.245,269.210 263.797,268.000 262.379 C 265.800 259.801,259.217 253.318,256.200 250.758 C 255.320 250.011,254.150 248.949,253.600 248.399 C 253.050 247.848,251.970 246.923,251.200 246.344 C 250.430 245.765,249.350 244.894,248.800 244.410 C 248.250 243.926,247.305 243.237,246.700 242.879 C 246.095 242.520,245.600 242.086,245.600 241.914 C 245.600 241.741,245.330 241.600,245.000 241.600 C 244.670 241.600,244.400 241.454,244.400 241.275 C 244.400 239.407,232.767 235.972,229.825 236.971 C 227.877 237.632,226.800 238.416,226.800 239.171 C 226.800 239.407,226.620 239.600,226.400 239.600 C 226.140 239.600,226.000 245.259,226.000 255.776 C 226.000 266.129,225.856 272.042,225.600 272.200 C 225.380 272.336,225.200 273.607,225.200 275.024 C 225.200 276.475,225.025 277.600,224.800 277.600 C 224.580 277.600,224.400 277.878,224.400 278.218 C 224.400 278.914,222.660 280.800,222.018 280.800 C 221.788 280.800,221.599 280.935,221.597 281.100 C 221.593 281.501,219.619 282.400,218.744 282.400 C 218.361 282.400,217.936 282.580,217.800 282.800 C 217.664 283.020,216.674 283.200,215.600 283.200 C 214.526 283.200,213.536 283.380,213.400 283.600 C 213.248 283.846,209.870 284.000,204.600 284.000 C 199.330 284.000,195.952 283.846,195.800 283.600 C 195.664 283.380,194.404 283.200,193.000 283.200 C 191.596 283.200,190.336 283.020,190.200 282.800 C 190.064 282.580,189.074 282.400,188.000 282.400 C 186.926 282.400,185.936 282.220,185.800 282.000 C 185.664 281.780,185.034 281.600,184.400 281.600 C 183.766 281.600,183.136 281.420,183.000 281.200 C 182.864 280.980,182.144 280.800,181.400 280.800 C 180.656 280.800,179.936 280.620,179.800 280.400 C 179.664 280.180,179.124 280.000,178.600 280.000 C 178.076 280.000,177.536 279.820,177.400 279.600 C 177.264 279.380,176.724 279.200,176.200 279.200 C 175.676 279.200,175.136 279.020,175.000 278.800 C 174.864 278.580,174.403 278.400,173.976 278.400 C 173.549 278.400,173.200 278.220,173.200 278.000 C 173.200 277.780,172.660 277.600,172.000 277.600 C 171.340 277.600,170.800 277.420,170.800 277.200 C 170.800 276.980,170.440 276.800,170.000 276.800 C 169.560 276.800,169.200 276.620,169.200 276.400 C 169.200 276.180,168.750 276.000,168.200 276.000 C 167.650 276.000,167.200 275.820,167.200 275.600 C 167.200 275.380,166.959 275.200,166.665 275.200 C 165.973 275.200,158.642 271.558,158.467 271.127 C 158.393 270.947,157.988 270.800,157.567 270.800 C 157.145 270.800,156.800 270.642,156.800 270.449 C 156.800 270.255,156.260 269.873,155.600 269.600 C 154.940 269.327,154.400 268.966,154.400 268.798 C 154.400 268.630,154.085 268.393,153.700 268.271 C 152.859 268.005,150.829 266.789,150.098 266.114 C 149.808 265.847,149.037 265.313,148.385 264.928 C 147.733 264.543,147.200 264.086,147.200 263.914 C 147.200 263.741,147.007 263.600,146.771 263.600 C 146.536 263.600,146.114 263.375,145.835 263.100 C 145.555 262.825,144.726 262.150,143.991 261.600 C 143.257 261.050,142.064 260.015,141.341 259.300 C 140.618 258.585,139.879 258.000,139.699 258.000 C 138.712 258.000,124.000 243.424,124.000 242.445 C 124.000 242.270,123.235 241.315,122.300 240.322 C 121.365 239.330,120.150 237.923,119.600 237.196 C 119.050 236.468,118.375 235.645,118.100 235.365 C 117.825 235.086,117.600 234.664,117.600 234.429 C 117.600 234.193,117.459 234.000,117.286 234.000 C 117.114 234.000,116.679 233.505,116.321 232.900 C 115.963 232.295,115.204 231.260,114.635 230.600 C 114.066 229.940,113.601 229.190,113.600 228.933 C 113.600 228.677,113.455 228.407,113.278 228.333 C 112.823 228.145,108.400 221.672,108.400 221.195 C 108.400 220.978,108.220 220.800,108.000 220.800 C 107.780 220.800,107.600 220.530,107.600 220.200 C 107.600 219.870,107.420 219.600,107.200 219.600 C 106.980 219.600,106.800 219.330,106.800 219.000 C 106.800 218.670,106.620 218.400,106.400 218.400 C 106.180 218.400,106.000 218.130,106.000 217.800 C 106.000 217.470,105.820 217.200,105.600 217.200 C 105.380 217.200,105.200 216.930,105.200 216.600 C 105.200 216.270,105.020 216.000,104.800 216.000 C 104.580 216.000,104.400 215.730,104.400 215.400 C 104.400 215.070,104.220 214.800,104.000 214.800 C 103.780 214.800,103.600 214.530,103.600 214.200 C 103.600 213.870,103.420 213.600,103.200 213.600 C 102.980 213.600,102.800 213.364,102.800 213.075 C 102.800 212.787,102.440 212.164,102.000 211.692 C 101.560 211.220,101.200 210.638,101.200 210.400 C 101.200 210.162,100.840 209.580,100.400 209.108 C 99.960 208.636,99.600 208.013,99.600 207.725 C 99.600 207.436,99.420 207.200,99.200 207.200 C 98.980 207.200,98.800 207.003,98.800 206.762 C 98.800 206.521,98.461 205.846,98.047 205.262 C 96.683 203.339,92.000 194.874,92.000 194.331 C 92.000 194.149,91.820 194.000,91.600 194.000 C 91.380 194.000,91.200 193.640,91.200 193.200 C 91.200 192.760,91.020 192.400,90.800 192.400 C 90.580 192.400,90.400 192.040,90.400 191.600 C 90.400 191.160,90.254 190.800,90.075 190.800 C 89.896 190.800,89.502 190.170,89.200 189.400 C 88.898 188.630,88.504 188.000,88.325 188.000 C 88.146 188.000,88.000 187.640,88.000 187.200 C 88.000 186.760,87.820 186.400,87.600 186.400 C 87.380 186.400,87.200 186.040,87.200 185.600 C 87.200 185.160,87.020 184.800,86.800 184.800 C 86.580 184.800,86.400 184.440,86.400 184.000 C 86.400 183.560,86.220 183.200,86.000 183.200 C 85.780 183.200,85.600 182.840,85.600 182.400 C 85.600 181.960,85.420 181.600,85.200 181.600 C 84.980 181.600,84.800 181.240,84.800 180.800 C 84.800 180.360,84.620 180.000,84.400 180.000 C 84.180 180.000,84.000 179.640,84.000 179.200 C 84.000 178.760,83.820 178.400,83.600 178.400 C 83.380 178.400,83.200 178.040,83.200 177.600 C 83.200 177.160,83.020 176.800,82.800 176.800 C 82.580 176.800,82.400 176.440,82.400 176.000 C 82.400 175.560,82.220 175.200,82.000 175.200 C 81.780 175.200,81.600 174.947,81.600 174.638 C 81.600 174.329,81.257 173.384,80.837 172.538 C 80.418 171.692,79.809 170.370,79.485 169.600 C 79.160 168.830,78.628 167.570,78.302 166.800 C 77.264 164.351,76.464 162.247,75.943 160.600 C 75.664 159.720,75.293 158.829,75.118 158.620 C 74.943 158.411,74.800 157.826,74.800 157.320 C 74.800 156.814,74.620 156.400,74.400 156.400 C 74.180 156.400,74.000 155.961,74.000 155.424 C 74.000 154.887,73.820 154.336,73.600 154.200 C 73.380 154.064,73.200 153.524,73.200 153.000 C 73.200 152.476,73.020 151.936,72.800 151.800 C 72.580 151.664,72.400 151.124,72.400 150.600 C 72.400 150.076,72.220 149.536,72.000 149.400 C 71.780 149.264,71.600 148.623,71.600 147.976 C 71.600 147.329,71.420 146.800,71.200 146.800 C 70.980 146.800,70.800 146.170,70.800 145.400 C 70.800 144.630,70.620 144.000,70.400 144.000 C 70.180 144.000,70.000 143.280,70.000 142.400 C 70.000 141.520,69.820 140.800,69.600 140.800 C 69.380 140.800,69.200 139.911,69.200 138.824 C 69.200 137.737,69.020 136.736,68.800 136.600 C 68.580 136.464,68.400 135.024,68.400 133.400 C 68.400 131.776,68.580 130.336,68.800 130.200 C 69.020 130.064,69.200 129.597,69.200 129.163 C 69.200 128.245,71.696 125.600,72.563 125.600 C 72.887 125.600,73.264 125.420,73.400 125.200 C 73.559 124.942,80.730 124.800,93.600 124.800 C 106.470 124.800,113.641 124.942,113.800 125.200 " stroke="none" fill="#2484f4" fill-rule="evenodd"></path><path id="path2" d="M74.821 125.179 C 74.446 125.416,74.870 125.465,76.021 125.318 C 76.999 125.192,77.875 125.025,77.967 124.945 C 78.342 124.619,75.355 124.840,74.821 125.179 M109.633 124.945 C 109.725 125.025,110.601 125.192,111.579 125.318 C 112.730 125.465,113.154 125.416,112.779 125.179 C 112.245 124.840,109.258 124.619,109.633 124.945 M168.000 125.218 C 167.562 125.515,167.724 125.552,168.600 125.356 C 170.071 125.027,170.390 124.798,169.367 124.806 C 168.945 124.809,168.330 124.995,168.000 125.218 M217.600 124.956 C 217.600 125.042,218.217 125.185,218.972 125.273 C 219.727 125.361,220.256 125.290,220.148 125.116 C 219.955 124.803,217.600 124.655,217.600 124.956 M287.621 125.179 C 287.246 125.416,287.670 125.465,288.821 125.318 C 289.799 125.192,290.675 125.025,290.767 124.945 C 291.142 124.619,288.155 124.840,287.621 125.179 M322.033 124.945 C 322.125 125.025,323.001 125.192,323.979 125.318 C 325.130 125.465,325.554 125.416,325.179 125.179 C 324.645 124.840,321.658 124.619,322.033 124.945 M70.929 127.300 C 70.484 127.795,69.976 128.470,69.801 128.800 C 69.463 129.437,69.555 129.350,71.176 127.500 C 71.706 126.895,72.049 126.400,71.939 126.400 C 71.829 126.400,71.375 126.805,70.929 127.300 M224.768 131.900 C 224.959 133.281,224.987 133.309,225.119 132.251 C 225.198 131.619,225.105 130.945,224.912 130.752 C 224.710 130.550,224.649 131.040,224.768 131.900 M330.501 131.800 C 330.505 132.680,330.587 132.993,330.683 132.495 C 330.779 131.998,330.775 131.278,330.675 130.895 C 330.575 130.513,330.496 130.920,330.501 131.800 M68.920 133.200 C 68.920 134.410,68.995 134.905,69.087 134.300 C 69.178 133.695,69.178 132.705,69.087 132.100 C 68.995 131.495,68.920 131.990,68.920 133.200 M163.228 133.076 C 163.213 133.558,163.380 134.064,163.600 134.200 C 164.073 134.492,164.073 134.101,163.600 133.000 C 163.269 132.229,163.255 132.231,163.228 133.076 M69.293 136.800 C 69.293 137.570,69.375 137.885,69.476 137.500 C 69.576 137.115,69.576 136.485,69.476 136.100 C 69.375 135.715,69.293 136.030,69.293 136.800 M165.775 137.732 C 166.391 138.539,166.976 139.200,167.075 139.200 C 167.353 139.200,165.621 136.860,165.109 136.544 C 164.859 136.389,165.159 136.924,165.775 137.732 M168.175 140.932 C 168.791 141.739,169.376 142.400,169.475 142.400 C 169.753 142.400,168.021 140.060,167.509 139.744 C 167.259 139.589,167.559 140.124,168.175 140.932 M70.006 140.833 C 70.009 141.365,70.189 142.070,70.406 142.400 C 70.682 142.822,70.723 142.585,70.542 141.600 C 70.225 139.875,69.998 139.549,70.006 140.833 M169.960 143.400 C 170.634 144.705,171.188 145.428,171.185 145.000 C 171.183 144.780,170.814 144.150,170.364 143.600 C 169.821 142.936,169.685 142.869,169.960 143.400 M173.206 151.033 C 173.209 151.455,173.395 152.070,173.618 152.400 C 173.915 152.838,173.952 152.676,173.756 151.800 C 173.427 150.329,173.198 150.010,173.206 151.033 M174.040 155.033 C 174.062 155.675,174.233 156.650,174.420 157.200 C 174.649 157.874,174.684 157.549,174.528 156.200 C 174.269 153.950,173.979 153.259,174.040 155.033 M129.007 155.879 C 129.607 157.314,130.000 157.962,130.000 157.516 C 130.000 157.084,128.785 154.400,128.589 154.400 C 128.479 154.400,128.667 155.066,129.007 155.879 M130.428 159.000 C 130.428 159.220,130.686 159.850,131.000 160.400 C 131.314 160.950,131.572 161.220,131.572 161.000 C 131.572 160.780,131.314 160.150,131.000 159.600 C 130.686 159.050,130.428 158.780,130.428 159.000 M316.308 163.300 C 315.433 164.649,314.648 166.256,315.087 165.800 C 315.648 165.217,317.298 162.400,317.079 162.400 C 316.976 162.400,316.629 162.805,316.308 163.300 M262.200 165.600 C 261.859 166.260,261.669 166.800,261.779 166.800 C 261.889 166.800,262.259 166.260,262.600 165.600 C 262.941 164.940,263.131 164.400,263.021 164.400 C 262.911 164.400,262.541 164.940,262.200 165.600 M313.846 167.400 C 313.491 167.950,312.909 168.895,312.553 169.500 L 311.905 170.600 312.710 169.626 C 313.660 168.476,314.921 166.400,314.669 166.400 C 314.571 166.400,314.201 166.850,313.846 167.400 M309.453 174.500 L 308.733 175.800 309.558 174.800 C 310.289 173.913,310.614 173.200,310.286 173.200 C 310.224 173.200,309.849 173.785,309.453 174.500 M141.160 180.600 C 141.834 181.905,142.388 182.628,142.385 182.200 C 142.383 181.980,142.014 181.350,141.564 180.800 C 141.021 180.136,140.885 180.069,141.160 180.600 M251.408 182.042 C 250.601 183.165,250.132 183.965,250.366 183.821 C 250.852 183.520,253.332 180.000,253.057 180.000 C 252.957 180.000,252.215 180.919,251.408 182.042 M87.600 185.600 C 88.485 187.360,89.299 188.800,89.409 188.800 C 89.519 188.800,88.885 187.360,88.000 185.600 C 87.115 183.840,86.301 182.400,86.191 182.400 C 86.081 182.400,86.715 183.840,87.600 185.600 M142.760 183.400 C 143.434 184.705,143.988 185.428,143.985 185.000 C 143.983 184.780,143.614 184.150,143.164 183.600 C 142.621 182.936,142.485 182.869,142.760 183.400 M298.521 191.000 C 295.650 195.290,293.413 198.794,293.550 198.787 C 293.790 198.775,302.453 186.021,303.513 184.119 C 304.846 181.728,303.307 183.850,298.521 191.000 M144.349 186.200 C 144.565 186.640,145.034 187.360,145.393 187.800 L 146.044 188.600 145.651 187.800 C 145.435 187.360,144.966 186.640,144.607 186.200 L 143.956 185.400 144.349 186.200 M246.975 187.868 C 246.359 188.676,246.059 189.211,246.309 189.056 C 246.821 188.740,248.553 186.400,248.275 186.400 C 248.176 186.400,247.591 187.061,246.975 187.868 M241.392 194.097 C 239.416 196.131,238.867 196.806,240.172 195.597 C 243.596 192.425,245.539 190.400,245.161 190.400 C 245.063 190.400,243.367 192.064,241.392 194.097 M147.408 191.200 C 148.120 192.513,152.519 198.827,152.877 199.047 C 153.086 199.177,152.045 197.509,150.563 195.341 C 147.988 191.575,146.683 189.862,147.408 191.200 M225.256 196.000 C 225.256 196.330,225.411 196.960,225.600 197.400 C 225.817 197.904,225.944 197.978,225.944 197.600 C 225.944 197.270,225.789 196.640,225.600 196.200 C 225.383 195.696,225.256 195.622,225.256 196.000 M226.330 199.404 C 226.920 200.604,228.282 201.711,228.877 201.473 C 229.229 201.332,229.181 201.253,228.729 201.232 C 228.360 201.214,227.580 200.615,226.997 199.900 C 226.413 199.185,226.113 198.962,226.330 199.404 M157.600 205.064 C 157.600 205.282,158.095 205.897,158.700 206.430 L 159.800 207.400 158.800 206.200 C 158.250 205.540,157.755 204.925,157.700 204.833 C 157.645 204.742,157.600 204.845,157.600 205.064 M287.769 208.626 C 287.622 209.411,287.658 210.404,287.851 210.833 C 288.104 211.399,288.206 211.007,288.221 209.407 C 288.246 206.837,288.139 206.652,287.769 208.626 M174.222 209.022 C 174.072 209.825,174.028 210.562,174.126 210.660 C 174.224 210.757,174.427 210.181,174.578 209.378 C 174.728 208.575,174.772 207.838,174.674 207.740 C 174.576 207.643,174.373 208.219,174.222 209.022 M161.724 209.477 C 162.060 210.021,165.200 212.555,165.200 212.282 C 165.200 212.180,164.353 211.403,163.319 210.555 C 162.284 209.707,161.566 209.222,161.724 209.477 M289.602 214.233 C 289.603 214.435,290.068 215.140,290.635 215.800 L 291.666 217.000 290.763 215.600 C 289.604 213.804,289.600 213.799,289.602 214.233 M292.800 218.384 C 292.800 218.507,296.438 222.206,300.885 226.604 C 305.332 231.002,308.887 234.470,308.785 234.312 C 308.403 233.716,292.800 218.170,292.800 218.384 M114.791 229.988 C 115.257 230.641,115.842 231.302,116.091 231.456 C 116.341 231.611,116.041 231.076,115.425 230.268 C 114.088 228.515,113.584 228.292,114.791 229.988 M118.267 234.700 C 119.959 236.991,121.200 238.486,121.200 238.235 C 121.200 237.924,117.589 233.200,117.351 233.200 C 117.246 233.200,117.658 233.875,118.267 234.700 M309.600 235.725 C 309.600 235.794,310.185 236.379,310.900 237.025 L 312.200 238.200 311.025 236.900 C 309.930 235.688,309.600 235.416,309.600 235.725 M235.000 236.400 C 235.440 236.589,236.070 236.744,236.400 236.744 C 236.778 236.744,236.704 236.617,236.200 236.400 C 235.760 236.211,235.130 236.056,234.800 236.056 C 234.422 236.056,234.496 236.183,235.000 236.400 M225.450 240.850 C 225.309 241.553,225.269 242.202,225.359 242.292 C 225.450 242.383,225.648 241.891,225.800 241.200 C 225.952 240.509,225.993 239.859,225.891 239.758 C 225.789 239.656,225.591 240.147,225.450 240.850 M124.034 241.847 C 124.565 242.533,125.080 243.023,125.179 242.935 C 125.277 242.847,124.843 242.286,124.213 241.688 L 123.069 240.600 124.034 241.847 M245.233 241.330 C 245.325 241.401,246.030 241.867,246.800 242.366 L 248.200 243.273 247.078 242.237 C 246.460 241.667,245.755 241.200,245.511 241.200 C 245.267 241.200,245.142 241.258,245.233 241.330 M314.800 241.458 C 314.800 241.674,315.385 242.379,316.100 243.025 L 317.400 244.200 316.200 242.802 C 315.540 242.033,314.955 241.328,314.900 241.235 C 314.845 241.143,314.800 241.243,314.800 241.458 M249.986 244.670 C 250.968 245.512,253.218 247.428,254.986 248.929 L 258.200 251.659 255.600 249.215 C 254.170 247.872,251.920 245.955,250.600 244.956 C 248.742 243.551,248.604 243.486,249.986 244.670 M126.400 244.525 C 126.400 244.594,126.985 245.179,127.700 245.825 L 129.000 247.000 127.825 245.700 C 126.730 244.488,126.400 244.216,126.400 244.525 M317.200 244.525 C 317.200 244.594,317.773 245.179,318.474 245.825 L 319.749 247.000 318.774 245.722 C 317.947 244.637,317.200 244.069,317.200 244.525 M131.200 249.800 C 132.617 251.230,133.867 252.400,133.977 252.400 C 134.087 252.400,133.017 251.230,131.600 249.800 C 130.183 248.370,128.933 247.200,128.823 247.200 C 128.713 247.200,129.783 248.370,131.200 249.800 M135.200 253.325 C 135.200 253.394,135.785 253.979,136.500 254.625 L 137.800 255.800 136.625 254.500 C 135.530 253.288,135.200 253.016,135.200 253.325 M262.600 256.000 C 264.128 257.540,265.469 258.800,265.579 258.800 C 265.689 258.800,264.528 257.540,263.000 256.000 C 261.472 254.460,260.131 253.200,260.021 253.200 C 259.911 253.200,261.072 254.460,262.600 256.000 M138.800 256.525 C 138.800 256.594,139.385 257.179,140.100 257.825 L 141.400 259.000 140.225 257.700 C 139.130 256.488,138.800 256.216,138.800 256.525 M328.000 257.710 C 328.000 258.090,331.653 263.600,331.905 263.600 C 332.098 263.600,331.635 262.845,329.334 259.405 C 328.600 258.308,328.000 257.545,328.000 257.710 M143.869 260.909 C 145.987 262.613,146.605 262.921,145.000 261.473 C 144.120 260.680,143.251 260.023,143.069 260.015 C 142.887 260.007,143.247 260.409,143.869 260.909 M270.000 263.800 C 271.195 265.010,272.263 266.000,272.373 266.000 C 272.483 266.000,271.595 265.010,270.400 263.800 C 269.205 262.590,268.137 261.600,268.027 261.600 C 267.917 261.600,268.805 262.590,270.000 263.800 M149.869 265.232 C 150.366 265.833,152.800 267.364,152.800 267.076 C 152.800 266.983,152.035 266.402,151.100 265.785 C 150.165 265.168,149.611 264.920,149.869 265.232 M333.281 266.591 C 333.759 267.576,334.219 268.314,334.303 268.230 C 334.484 268.049,332.868 264.800,332.597 264.800 C 332.494 264.800,332.802 265.606,333.281 266.591 M274.425 268.631 C 275.181 269.528,275.881 270.197,275.980 270.117 C 276.079 270.038,275.460 269.304,274.605 268.487 L 273.050 267.000 274.425 268.631 M155.600 268.979 C 155.600 269.089,156.140 269.459,156.800 269.800 C 157.460 270.141,158.000 270.331,158.000 270.221 C 158.000 270.111,157.460 269.741,156.800 269.400 C 156.140 269.059,155.600 268.869,155.600 268.979 M335.268 271.200 C 335.288 272.239,335.918 273.946,335.932 273.000 C 335.938 272.560,335.789 271.840,335.600 271.400 C 335.389 270.910,335.261 270.832,335.268 271.200 M279.000 273.600 C 280.083 274.700,281.060 275.600,281.170 275.600 C 281.280 275.600,280.483 274.700,279.400 273.600 C 278.317 272.500,277.340 271.600,277.230 271.600 C 277.120 271.600,277.917 272.500,279.000 273.600 M224.854 274.667 C 224.825 275.144,224.696 275.864,224.570 276.267 C 224.352 276.961,224.364 276.962,224.796 276.288 C 225.047 275.897,225.175 275.177,225.081 274.688 C 224.909 273.801,224.909 273.801,224.854 274.667 M283.200 277.725 C 283.200 277.794,283.785 278.379,284.500 279.025 L 285.800 280.200 284.625 278.900 C 283.530 277.688,283.200 277.416,283.200 277.725 M286.201 280.402 C 286.469 280.836,288.800 282.134,288.800 281.850 C 288.800 281.756,288.159 281.301,287.376 280.839 C 286.593 280.377,286.064 280.180,286.201 280.402 M216.200 282.400 C 215.181 282.838,216.232 282.838,217.600 282.400 C 218.404 282.143,218.443 282.077,217.800 282.068 C 217.360 282.062,216.640 282.211,216.200 282.400 M196.400 283.216 C 198.202 283.541,203.481 283.728,203.167 283.456 C 203.075 283.376,201.110 283.217,198.800 283.101 C 196.058 282.965,195.225 283.004,196.400 283.216 M212.305 283.083 C 212.802 283.179,213.522 283.175,213.905 283.075 C 214.287 282.975,213.880 282.896,213.000 282.901 C 212.120 282.905,211.807 282.987,212.305 283.083 M292.000 283.180 C 292.999 283.520,295.482 283.732,295.167 283.451 C 295.075 283.369,294.100 283.199,293.000 283.072 C 291.651 282.916,291.326 282.951,292.000 283.180 M206.900 283.491 C 207.725 283.578,209.075 283.578,209.900 283.491 C 210.725 283.405,210.050 283.334,208.400 283.334 C 206.750 283.334,206.075 283.405,206.900 283.491 M326.305 283.483 C 326.802 283.579,327.522 283.575,327.905 283.475 C 328.287 283.375,327.880 283.296,327.000 283.301 C 326.120 283.305,325.807 283.387,326.305 283.483 " stroke="none" fill="#7cb6fb" fill-rule="evenodd"></path><path id="path3" d="M85.673 125.099 C 90.004 125.164,97.204 125.164,101.673 125.100 C 106.143 125.035,102.600 124.982,93.800 124.982 C 85.000 124.982,81.343 125.035,85.673 125.099 M181.929 125.100 C 188.599 125.161,199.399 125.161,205.929 125.100 C 212.458 125.038,207.000 124.988,193.800 124.988 C 180.600 124.988,175.258 125.038,181.929 125.100 M298.500 125.100 C 302.845 125.164,309.955 125.164,314.300 125.100 C 318.645 125.035,315.090 124.982,306.400 124.982 C 297.710 124.982,294.155 125.035,298.500 125.100 M73.833 125.793 C 72.972 126.100,71.802 126.852,71.233 127.465 L 70.200 128.577 71.278 127.640 C 71.871 127.124,73.311 126.376,74.478 125.979 C 75.645 125.581,76.330 125.251,76.000 125.246 C 75.670 125.240,74.695 125.486,73.833 125.793 M111.600 125.600 C 111.930 125.813,112.560 125.978,113.000 125.966 L 113.800 125.944 113.000 125.600 C 111.804 125.086,110.805 125.086,111.600 125.600 M167.400 125.767 C 164.686 126.978,162.665 130.692,163.573 132.800 C 163.976 133.735,163.989 133.716,163.775 132.520 C 163.329 130.036,164.946 127.455,167.859 126.001 C 169.601 125.131,169.239 124.946,167.400 125.767 M219.888 125.696 C 220.597 125.973,221.559 126.528,222.026 126.929 C 222.494 127.329,222.959 127.574,223.061 127.472 C 223.384 127.150,220.999 125.663,219.776 125.423 C 218.618 125.196,218.620 125.200,219.888 125.696 M287.200 125.600 C 286.396 125.857,286.357 125.923,287.000 125.932 C 287.440 125.938,288.160 125.789,288.600 125.600 C 289.619 125.162,288.568 125.162,287.200 125.600 M324.200 125.600 C 324.640 125.789,325.360 125.938,325.800 125.932 C 326.443 125.923,326.404 125.857,325.600 125.600 C 324.232 125.162,323.181 125.162,324.200 125.600 M114.000 126.094 C 114.110 126.213,115.100 126.987,116.200 127.812 C 117.378 128.695,117.840 128.919,117.324 128.356 C 116.842 127.830,115.852 127.057,115.124 126.638 C 114.396 126.219,113.890 125.974,114.000 126.094 M284.600 126.628 C 283.233 127.337,281.311 129.069,280.757 130.089 C 280.552 130.468,281.278 129.883,282.373 128.789 C 283.467 127.695,284.630 126.800,284.957 126.800 C 285.285 126.800,285.664 126.620,285.800 126.400 C 286.126 125.872,286.016 125.893,284.600 126.628 M327.942 127.138 C 328.681 127.832,329.383 128.400,329.504 128.400 C 329.895 128.400,328.234 126.739,327.404 126.301 C 326.962 126.067,327.204 126.444,327.942 127.138 M223.200 128.244 C 223.200 128.477,223.335 128.799,223.500 128.961 C 223.665 129.123,224.021 130.008,224.292 130.928 L 224.784 132.600 224.559 131.020 C 224.355 129.591,223.200 127.231,223.200 128.244 M329.789 132.034 C 329.783 133.794,329.905 134.911,330.061 134.517 C 330.421 133.604,330.428 130.412,330.072 129.517 C 329.922 129.141,329.795 130.274,329.789 132.034 M119.108 131.734 C 119.709 132.928,120.274 133.837,120.364 133.755 C 120.568 133.569,118.769 130.028,118.334 129.759 C 118.159 129.651,118.508 130.540,119.108 131.734 M69.328 133.200 C 69.328 134.630,69.401 135.215,69.489 134.500 C 69.578 133.785,69.578 132.615,69.489 131.900 C 69.401 131.185,69.328 131.770,69.328 133.200 M278.329 134.700 C 276.490 138.674,275.830 140.304,276.216 139.918 C 276.617 139.517,280.360 131.200,280.140 131.200 C 280.034 131.200,279.219 132.775,278.329 134.700 M224.898 164.800 C 224.851 182.290,224.944 196.808,225.106 197.062 C 225.371 197.479,225.362 164.865,225.091 142.000 C 225.032 137.050,224.946 147.310,224.898 164.800 M164.016 134.415 C 164.007 134.753,164.495 135.573,165.100 136.237 C 165.705 136.901,165.998 137.164,165.750 136.822 C 165.503 136.480,165.015 135.660,164.666 135.000 C 164.317 134.340,164.025 134.077,164.016 134.415 M120.790 135.492 C 121.367 137.380,123.595 143.328,123.803 143.536 C 124.171 143.904,124.002 143.328,122.754 139.962 C 122.069 138.113,121.418 136.192,121.307 135.694 C 121.195 135.196,120.958 134.697,120.778 134.586 C 120.598 134.475,120.604 134.883,120.790 135.492 M69.656 137.800 C 69.656 138.240,69.811 138.960,70.000 139.400 L 70.344 140.200 70.344 139.400 C 70.344 138.960,70.189 138.240,70.000 137.800 L 69.656 137.000 69.656 137.800 M167.140 139.116 C 167.633 139.809,168.244 140.504,168.497 140.660 C 168.750 140.817,168.554 140.377,168.060 139.684 C 167.567 138.991,166.956 138.296,166.703 138.140 C 166.450 137.983,166.646 138.423,167.140 139.116 M70.644 142.200 C 70.973 143.671,71.202 143.990,71.194 142.967 C 71.191 142.545,71.005 141.930,70.782 141.600 C 70.485 141.162,70.448 141.324,70.644 142.200 M274.255 143.455 C 273.876 144.249,273.653 144.986,273.759 145.093 C 273.866 145.199,274.236 144.609,274.582 143.782 C 275.398 141.829,275.149 141.580,274.255 143.455 M72.028 147.476 C 72.118 148.515,72.744 149.396,72.772 148.524 C 72.787 148.042,72.620 147.536,72.400 147.400 C 72.180 147.264,72.013 147.298,72.028 147.476 M322.961 150.900 C 322.598 151.615,321.665 153.370,320.888 154.800 C 320.111 156.230,319.664 157.220,319.896 157.000 C 320.470 156.454,324.129 149.600,323.847 149.600 C 323.722 149.600,323.324 150.185,322.961 150.900 M173.858 152.400 C 174.175 154.125,174.402 154.451,174.394 153.167 C 174.391 152.635,174.211 151.930,173.994 151.600 C 173.718 151.178,173.677 151.415,173.858 152.400 M268.600 154.800 C 268.259 155.460,268.069 156.000,268.179 156.000 C 268.289 156.000,268.659 155.460,269.000 154.800 C 269.341 154.140,269.531 153.600,269.421 153.600 C 269.311 153.600,268.941 154.140,268.600 154.800 M174.600 182.376 C 174.600 197.527,174.732 209.715,174.894 209.462 C 175.263 208.881,175.242 156.447,174.872 155.515 C 174.722 155.137,174.600 167.225,174.600 182.376 M318.653 158.900 L 317.933 160.200 318.758 159.200 C 319.489 158.313,319.814 157.600,319.486 157.600 C 319.424 157.600,319.049 158.185,318.653 158.900 M76.000 158.931 C 76.000 159.434,78.921 166.602,79.288 167.000 C 79.632 167.372,79.396 166.718,77.167 161.100 C 76.354 159.053,76.000 158.395,76.000 158.931 M130.434 159.800 C 130.434 160.020,130.778 160.830,131.200 161.600 C 131.622 162.370,131.966 162.820,131.966 162.600 C 131.966 162.380,131.622 161.570,131.200 160.800 C 130.778 160.030,130.434 159.580,130.434 159.800 M317.000 161.600 C 316.659 162.260,316.469 162.800,316.579 162.800 C 316.689 162.800,317.059 162.260,317.400 161.600 C 317.741 160.940,317.931 160.400,317.821 160.400 C 317.711 160.400,317.341 160.940,317.000 161.600 M264.759 161.700 C 264.501 162.195,263.835 163.410,263.279 164.400 C 262.723 165.390,262.458 166.020,262.690 165.800 C 263.272 165.248,265.729 160.800,265.452 160.800 C 265.329 160.800,265.017 161.205,264.759 161.700 M314.708 165.300 C 314.387 165.795,313.907 166.650,313.640 167.200 C 312.960 168.603,314.194 167.106,315.041 165.500 C 315.739 164.174,315.523 164.044,314.708 165.300 M132.800 164.978 C 132.800 165.420,139.997 179.453,140.658 180.298 C 140.959 180.684,139.376 177.400,137.140 173.000 C 132.894 164.647,132.800 164.474,132.800 164.978 M260.968 168.218 C 260.382 169.218,259.970 170.104,260.053 170.186 C 260.135 170.268,260.697 169.450,261.301 168.368 C 262.683 165.893,262.405 165.767,260.968 168.218 M79.600 167.684 C 79.600 168.116,80.815 170.800,81.011 170.800 C 81.121 170.800,80.933 170.134,80.593 169.321 C 79.993 167.886,79.600 167.238,79.600 167.684 M311.414 170.635 C 311.041 171.204,310.805 171.738,310.889 171.822 C 310.973 171.907,311.358 171.441,311.744 170.788 C 312.606 169.328,312.348 169.209,311.414 170.635 M255.483 176.684 C 253.329 179.865,251.742 182.360,251.956 182.227 C 252.456 181.918,259.719 171.181,259.537 171.020 C 259.462 170.954,257.637 173.503,255.483 176.684 M82.834 175.000 C 82.834 175.220,83.178 176.030,83.600 176.800 C 84.022 177.570,84.366 178.020,84.366 177.800 C 84.366 177.580,84.022 176.770,83.600 176.000 C 83.178 175.230,82.834 174.780,82.834 175.000 M306.729 178.100 C 303.863 182.418,302.958 183.890,303.473 183.400 C 304.229 182.680,309.370 174.800,309.084 174.800 C 308.994 174.800,307.934 176.285,306.729 178.100 M141.209 181.500 C 141.214 181.665,141.585 182.250,142.033 182.800 L 142.848 183.800 142.214 182.500 C 141.611 181.265,141.189 180.845,141.209 181.500 M249.777 184.700 C 247.719 187.273,247.232 188.107,248.785 186.400 C 250.253 184.786,251.737 182.800,251.475 182.800 C 251.377 182.800,250.612 183.655,249.777 184.700 M142.809 184.300 C 142.814 184.465,143.185 185.050,143.633 185.600 L 144.448 186.600 143.814 185.300 C 143.211 184.065,142.789 183.645,142.809 184.300 M145.724 189.000 C 146.062 189.660,146.638 190.560,147.004 191.000 C 147.370 191.440,147.265 191.080,146.770 190.200 C 145.680 188.258,144.864 187.322,145.724 189.000 M246.368 189.100 C 244.009 191.743,243.474 192.400,243.682 192.400 C 243.803 192.400,244.749 191.410,245.782 190.200 C 247.696 187.960,248.155 187.098,246.368 189.100 M90.360 190.200 C 91.034 191.505,91.588 192.228,91.585 191.800 C 91.583 191.580,91.214 190.950,90.764 190.400 C 90.221 189.736,90.085 189.669,90.360 190.200 M92.640 194.402 C 93.239 195.503,93.793 196.340,93.871 196.263 C 94.043 196.090,92.008 192.400,91.741 192.400 C 91.636 192.400,92.040 193.301,92.640 194.402 M242.556 193.315 C 240.984 195.033,237.133 198.442,235.700 199.386 C 233.736 200.680,233.472 201.094,235.171 200.215 C 236.138 199.715,238.484 197.704,243.186 193.343 C 243.508 193.044,243.598 192.807,243.386 192.815 C 243.174 192.824,242.800 193.049,242.556 193.315 M94.714 198.100 C 95.143 198.815,96.246 200.705,97.165 202.300 C 98.084 203.895,98.932 205.200,99.050 205.200 C 99.169 205.200,98.914 204.615,98.486 203.900 C 98.057 203.185,96.954 201.295,96.035 199.700 C 95.116 198.105,94.268 196.800,94.150 196.800 C 94.031 196.800,94.286 197.385,94.714 198.100 M152.244 198.900 C 157.278 205.889,163.996 212.684,166.900 213.724 C 168.166 214.178,167.630 213.652,166.100 212.939 C 164.037 211.978,157.137 204.981,153.835 200.500 C 152.335 198.465,151.023 196.800,150.920 196.800 C 150.816 196.800,151.413 197.745,152.244 198.900 M290.996 201.498 C 288.749 204.919,287.619 207.113,287.645 208.000 C 287.661 208.533,287.687 208.533,287.880 208.000 C 288.544 206.164,289.562 204.285,291.310 201.667 C 292.387 200.055,293.206 198.673,293.130 198.596 C 293.054 198.520,292.093 199.826,290.996 201.498 M229.100 201.882 C 229.595 201.978,230.405 201.978,230.900 201.882 C 231.395 201.787,230.990 201.709,230.000 201.709 C 229.010 201.709,228.605 201.787,229.100 201.882 M100.000 206.929 C 100.000 207.294,102.045 210.400,102.286 210.400 C 102.479 210.400,100.892 207.648,100.336 207.020 C 100.151 206.811,100.000 206.770,100.000 206.929 M102.869 211.600 C 105.205 215.395,107.761 219.172,107.900 219.033 C 108.072 218.862,103.417 211.708,102.673 211.000 C 102.442 210.780,102.530 211.050,102.869 211.600 M173.685 211.773 C 173.015 213.244,173.078 213.552,173.830 212.479 C 174.176 211.984,174.395 211.384,174.315 211.144 C 174.235 210.905,173.952 211.188,173.685 211.773 M287.818 211.700 C 287.968 212.195,288.255 212.776,288.456 212.991 C 288.657 213.206,288.619 212.801,288.372 212.091 C 287.865 210.638,287.397 210.308,287.818 211.700 M168.905 214.287 C 169.514 214.379,170.414 214.377,170.905 214.282 C 171.397 214.187,170.900 214.111,169.800 214.114 C 168.700 214.117,168.297 214.195,168.905 214.287 M291.340 217.214 C 292.722 218.894,309.686 236.044,309.519 235.592 C 309.453 235.416,305.080 230.897,299.800 225.550 C 294.520 220.203,290.713 216.452,291.340 217.214 M112.001 225.400 C 113.796 228.040,115.539 230.470,115.874 230.800 C 116.720 231.633,110.460 222.388,109.508 221.400 C 109.085 220.960,110.207 222.760,112.001 225.400 M117.140 232.716 C 117.633 233.409,118.244 234.104,118.497 234.260 C 118.750 234.417,118.554 233.977,118.060 233.284 C 117.567 232.591,116.956 231.896,116.703 231.740 C 116.450 231.583,116.646 232.023,117.140 232.716 M119.540 235.916 C 120.033 236.609,120.644 237.304,120.897 237.460 C 121.150 237.617,120.954 237.177,120.460 236.484 C 119.967 235.791,119.356 235.096,119.103 234.940 C 118.850 234.783,119.046 235.223,119.540 235.916 M230.900 235.891 C 231.725 235.978,233.075 235.978,233.900 235.891 C 234.725 235.805,234.050 235.734,232.400 235.734 C 230.750 235.734,230.075 235.805,230.900 235.891 M227.589 236.682 C 226.321 237.555,225.627 238.442,225.619 239.200 C 225.615 239.530,225.837 239.355,226.112 238.812 C 226.387 238.269,227.221 237.414,227.965 236.912 C 228.709 236.410,229.152 236.000,228.948 236.000 C 228.745 236.000,228.133 236.307,227.589 236.682 M237.600 236.851 C 238.810 237.334,240.587 238.168,241.548 238.704 C 242.510 239.241,243.186 239.501,243.051 239.283 C 242.711 238.733,238.028 236.511,236.585 236.215 C 235.933 236.082,236.390 236.368,237.600 236.851 M311.009 237.600 C 312.801 239.890,314.440 241.694,314.589 241.542 C 314.666 241.464,313.646 240.230,312.321 238.800 C 310.997 237.370,310.407 236.830,311.009 237.600 M122.665 239.800 C 124.331 241.794,124.913 242.214,123.633 240.500 C 122.084 238.424,121.711 238.000,121.436 238.000 C 121.284 238.000,121.837 238.810,122.665 239.800 M244.800 240.600 C 245.545 241.150,246.342 241.600,246.571 241.600 C 246.799 241.600,246.323 241.150,245.514 240.600 C 244.705 240.050,243.908 239.600,243.744 239.600 C 243.579 239.600,244.055 240.050,244.800 240.600 M225.049 240.615 C 224.912 240.973,224.840 248.676,224.889 257.733 L 224.979 274.200 225.189 257.200 C 225.415 238.978,225.421 239.648,225.049 240.615 M247.200 242.149 C 247.200 242.235,247.830 242.786,248.600 243.373 C 249.370 243.960,249.998 244.297,249.995 244.120 C 249.992 243.944,249.362 243.393,248.595 242.896 C 247.828 242.399,247.200 242.063,247.200 242.149 M316.872 244.500 C 318.065 245.875,319.887 248.052,320.921 249.337 C 321.954 250.622,322.800 251.522,322.799 251.337 C 322.799 250.938,315.267 242.000,314.932 242.000 C 314.806 242.000,315.679 243.125,316.872 244.500 M128.586 246.573 C 131.862 250.142,138.456 256.400,138.941 256.400 C 139.064 256.400,137.525 254.825,135.520 252.900 C 131.000 248.559,126.244 243.665,126.067 243.171 C 125.993 242.967,125.751 242.800,125.528 242.800 C 125.305 242.800,126.681 244.498,128.586 246.573 M253.371 247.097 C 254.015 247.809,254.630 248.304,254.738 248.196 C 254.845 248.088,254.858 247.955,254.767 247.900 C 254.675 247.845,254.060 247.351,253.400 246.801 L 252.200 245.803 253.371 247.097 M259.303 252.458 C 261.670 254.736,265.450 258.502,267.703 260.828 C 269.956 263.153,271.070 264.233,270.177 263.228 C 266.517 259.104,262.780 255.324,259.000 251.918 L 255.000 248.315 259.303 252.458 M323.975 253.000 C 324.448 253.660,325.411 255.052,326.117 256.093 C 326.823 257.134,327.546 257.989,327.725 257.993 C 328.094 258.001,326.185 255.292,324.347 253.200 C 323.391 252.112,323.308 252.067,323.975 253.000 M141.184 258.355 C 142.165 259.241,143.050 259.884,143.150 259.783 C 143.251 259.682,143.258 259.553,143.167 259.496 C 143.075 259.439,142.190 258.796,141.200 258.068 L 139.400 256.743 141.184 258.355 M145.709 261.853 C 145.845 262.073,147.078 263.040,148.448 264.001 C 149.818 264.962,150.827 265.568,150.691 265.347 C 150.555 265.127,149.322 264.160,147.952 263.199 C 146.582 262.238,145.573 261.632,145.709 261.853 M331.200 263.350 C 331.200 263.641,333.271 267.200,333.441 267.200 C 333.536 267.200,333.157 266.300,332.600 265.200 C 331.731 263.486,331.200 262.783,331.200 263.350 M272.400 265.888 C 272.400 266.078,273.254 267.036,274.298 268.017 C 276.111 269.720,276.134 269.729,274.798 268.224 C 272.470 265.599,272.400 265.531,272.400 265.888 M153.200 267.147 C 153.750 267.594,154.920 268.337,155.800 268.798 C 157.803 269.848,156.294 268.672,153.834 267.266 C 152.485 266.496,152.374 266.475,153.200 267.147 M157.800 269.928 C 158.235 270.359,165.309 274.081,166.588 274.552 C 168.139 275.123,166.896 274.398,162.185 271.984 C 159.553 270.636,157.580 269.710,157.800 269.928 M278.400 272.600 C 279.817 274.030,281.057 275.200,281.155 275.200 C 281.495 275.200,276.597 270.093,276.212 270.047 C 275.998 270.021,276.983 271.170,278.400 272.600 M335.479 273.905 C 335.775 276.665,334.819 279.196,332.877 280.797 C 332.074 281.459,331.621 282.000,331.869 282.000 C 334.270 282.000,336.673 276.055,335.587 272.800 C 335.368 272.145,335.331 272.527,335.479 273.905 M222.700 278.866 C 221.400 280.325,221.249 280.841,222.437 279.766 C 223.174 279.100,224.222 277.574,223.914 277.616 C 223.851 277.624,223.305 278.187,222.700 278.866 M284.676 278.844 C 285.158 279.370,286.148 280.143,286.876 280.562 C 288.541 281.521,288.317 281.277,285.800 279.388 C 284.622 278.505,284.160 278.281,284.676 278.844 M178.400 279.200 C 178.730 279.413,179.270 279.588,179.600 279.588 C 180.133 279.588,180.133 279.545,179.600 279.200 C 179.270 278.987,178.730 278.812,178.400 278.812 C 177.867 278.812,177.867 278.855,178.400 279.200 M181.000 280.000 C 182.196 280.514,183.195 280.514,182.400 280.000 C 182.070 279.787,181.440 279.622,181.000 279.634 L 180.200 279.656 181.000 280.000 M184.200 280.800 C 184.640 280.989,185.270 281.144,185.600 281.144 C 185.978 281.144,185.904 281.017,185.400 280.800 C 184.960 280.611,184.330 280.456,184.000 280.456 C 183.622 280.456,183.696 280.583,184.200 280.800 M187.600 281.600 C 188.150 281.776,188.960 281.926,189.400 281.932 L 190.200 281.944 189.400 281.600 C 188.960 281.411,188.150 281.262,187.600 281.268 L 186.600 281.280 187.600 281.600 M218.000 281.600 C 217.467 281.945,217.467 281.988,218.000 281.988 C 218.330 281.988,218.870 281.813,219.200 281.600 C 219.733 281.255,219.733 281.212,219.200 281.212 C 218.870 281.212,218.330 281.387,218.000 281.600 M192.000 282.400 C 192.550 282.576,193.630 282.717,194.400 282.714 L 195.800 282.708 194.200 282.377 C 192.063 281.935,190.596 281.950,192.000 282.400 M214.400 282.400 L 213.400 282.720 214.400 282.732 C 214.950 282.738,215.760 282.589,216.200 282.400 L 217.000 282.056 216.200 282.068 C 215.760 282.074,214.950 282.224,214.400 282.400 M200.855 283.202 C 202.755 283.351,205.995 283.351,208.055 283.201 C 211.146 282.977,210.542 282.929,204.600 282.930 C 198.943 282.930,198.140 282.988,200.855 283.202 M294.247 283.277 C 296.221 283.629,324.330 283.619,327.000 283.265 C 328.100 283.119,320.831 283.000,310.847 283.000 C 300.862 283.000,293.392 283.125,294.247 283.277 " stroke="none" fill="#96c4fc" fill-rule="evenodd"></path><path id="path4" d="M73.400 125.200 C 73.085 125.709,74.012 125.709,74.800 125.200 C 75.288 124.885,75.236 124.811,74.524 124.806 C 74.042 124.803,73.536 124.980,73.400 125.200 M166.800 125.200 C 166.800 125.701,167.224 125.701,168.000 125.200 C 168.485 124.886,168.428 124.811,167.700 124.806 C 167.205 124.803,166.800 124.980,166.800 125.200 M220.200 125.200 C 220.336 125.420,220.662 125.600,220.924 125.600 C 221.532 125.601,223.326 127.158,223.920 128.200 C 224.241 128.763,224.379 128.822,224.387 128.400 C 224.409 127.301,221.626 124.800,220.382 124.800 C 220.146 124.800,220.064 124.980,220.200 125.200 M286.400 125.200 C 286.400 125.701,286.824 125.701,287.600 125.200 C 288.085 124.886,288.028 124.811,287.300 124.806 C 286.805 124.803,286.400 124.980,286.400 125.200 M325.200 125.200 C 325.988 125.709,326.915 125.709,326.600 125.200 C 326.464 124.980,325.958 124.803,325.476 124.806 C 324.764 124.811,324.712 124.885,325.200 125.200 M70.500 127.016 C 69.785 127.765,69.201 128.697,69.201 129.089 C 69.203 129.587,69.428 129.430,69.955 128.568 C 70.368 127.890,71.222 126.950,71.853 126.480 C 72.527 125.978,72.753 125.631,72.400 125.640 C 72.070 125.648,71.215 126.267,70.500 127.016 M115.200 126.310 C 117.749 128.013,119.850 131.205,121.577 136.000 C 121.854 136.770,122.224 137.760,122.400 138.200 C 122.695 138.939,123.160 140.280,123.772 142.157 C 123.908 142.574,124.108 142.825,124.217 142.717 C 124.520 142.414,121.728 134.528,120.283 131.605 C 118.907 128.823,115.983 125.587,114.876 125.621 C 114.361 125.637,114.438 125.801,115.200 126.310 M164.775 126.700 C 161.640 130.238,162.082 134.427,166.061 138.897 C 166.895 139.834,167.582 140.759,167.589 140.953 C 167.595 141.147,167.916 141.597,168.303 141.953 C 168.689 142.309,169.260 143.095,169.570 143.700 C 169.881 144.305,170.289 144.800,170.477 144.800 C 170.915 144.800,169.995 143.354,167.138 139.556 C 162.372 133.218,161.889 129.633,165.424 126.852 C 166.417 126.072,166.662 125.600,166.075 125.600 C 165.896 125.600,165.311 126.095,164.775 126.700 M282.936 126.910 C 280.286 128.964,277.813 132.798,276.621 136.700 C 276.184 138.132,276.700 137.743,277.418 136.100 C 279.755 130.749,282.974 126.400,284.597 126.400 C 284.903 126.400,285.264 126.220,285.400 126.000 C 285.918 125.161,284.531 125.673,282.936 126.910 M328.151 126.483 C 328.784 126.955,329.635 128.075,330.042 128.971 C 330.449 129.867,330.786 130.283,330.791 129.895 C 330.808 128.545,328.460 125.581,327.400 125.613 C 327.180 125.620,327.518 126.011,328.151 126.483 M224.400 129.753 C 224.400 130.083,224.580 130.464,224.800 130.600 C 225.020 130.736,225.200 130.577,225.200 130.247 C 225.200 129.917,225.020 129.536,224.800 129.400 C 224.580 129.264,224.400 129.423,224.400 129.753 M68.667 130.267 C 68.295 130.638,68.331 136.310,68.706 136.542 C 68.874 136.646,69.009 135.216,69.006 133.366 C 69.003 131.515,68.985 130.000,68.967 130.000 C 68.948 130.000,68.813 130.120,68.667 130.267 M330.297 134.364 C 330.131 135.114,330.086 135.819,330.197 135.931 C 330.614 136.348,330.852 135.634,330.728 134.338 L 330.599 133.000 330.297 134.364 M225.228 165.276 C 225.244 181.844,225.411 195.760,225.600 196.200 C 225.796 196.656,225.956 183.812,225.972 166.324 C 225.990 146.274,225.861 135.562,225.600 135.400 C 225.335 135.236,225.209 145.289,225.228 165.276 M329.646 137.067 C 329.621 137.324,329.484 137.864,329.341 138.267 C 329.140 138.836,329.194 138.897,329.579 138.542 C 329.852 138.291,329.989 137.751,329.884 137.342 C 329.779 136.934,329.672 136.810,329.646 137.067 M69.240 139.300 C 69.218 140.125,69.380 140.800,69.600 140.800 C 70.058 140.800,70.058 140.230,69.600 138.800 C 69.314 137.908,69.275 137.961,69.240 139.300 M70.006 142.900 C 70.003 143.505,70.180 144.000,70.400 144.000 C 70.906 144.000,70.906 143.183,70.400 142.400 C 70.098 141.932,70.011 142.043,70.006 142.900 M70.828 145.700 C 70.813 146.305,70.980 146.800,71.200 146.800 C 71.669 146.800,71.669 146.493,71.200 145.400 C 70.895 144.691,70.853 144.725,70.828 145.700 M271.600 147.400 C 271.050 148.608,270.465 149.598,270.300 149.599 C 270.135 149.599,270.000 149.960,270.000 150.400 C 270.000 150.840,269.820 151.200,269.600 151.200 C 269.380 151.200,269.200 151.560,269.200 152.000 C 269.200 152.440,269.020 152.800,268.800 152.800 C 268.580 152.800,268.400 153.145,268.400 153.567 C 268.400 153.988,268.193 154.402,267.940 154.487 C 267.687 154.571,267.570 154.901,267.680 155.220 C 267.829 155.655,271.354 149.367,273.129 145.500 C 273.205 145.335,273.117 145.201,272.933 145.201 C 272.750 145.202,272.150 146.192,271.600 147.400 M171.600 147.753 C 171.600 148.083,171.780 148.464,172.000 148.600 C 172.220 148.736,172.400 148.577,172.400 148.247 C 172.400 147.917,172.220 147.536,172.000 147.400 C 171.780 147.264,171.600 147.423,171.600 147.753 M71.606 148.276 C 71.603 148.758,71.780 149.264,72.000 149.400 C 72.509 149.715,72.509 148.788,72.000 148.000 C 71.685 147.512,71.611 147.564,71.606 148.276 M323.140 151.823 C 321.575 154.891,319.553 158.492,318.739 159.662 C 318.333 160.246,318.000 160.830,318.000 160.961 C 318.000 161.092,316.806 163.134,315.347 165.499 C 311.140 172.319,311.096 172.400,311.560 172.400 C 311.802 172.400,312.000 172.130,312.000 171.800 C 312.000 171.470,312.180 171.200,312.400 171.200 C 312.620 171.200,312.800 171.007,312.800 170.772 C 312.800 170.537,313.340 169.559,314.000 168.600 C 314.660 167.641,315.200 166.663,315.200 166.428 C 315.200 166.193,315.335 166.000,315.501 166.000 C 315.666 166.000,316.247 165.145,316.791 164.100 C 317.335 163.055,317.888 162.110,318.020 162.000 C 318.152 161.890,318.696 160.990,319.230 160.000 C 319.763 159.010,320.290 158.110,320.401 158.000 C 320.511 157.890,320.871 157.260,321.201 156.600 C 321.530 155.940,322.391 154.337,323.113 153.039 C 323.835 151.740,324.363 150.490,324.287 150.262 C 324.211 150.033,323.695 150.735,323.140 151.823 M72.400 150.953 C 72.400 151.283,72.580 151.664,72.800 151.800 C 73.020 151.936,73.200 151.777,73.200 151.447 C 73.200 151.117,73.020 150.736,72.800 150.600 C 72.580 150.464,72.400 150.623,72.400 150.953 M173.206 152.676 C 173.203 153.158,173.380 153.664,173.600 153.800 C 174.109 154.115,174.109 153.188,173.600 152.400 C 173.285 151.912,173.211 151.964,173.206 152.676 M266.671 156.700 C 266.454 157.387,265.195 159.606,264.799 160.000 C 264.689 160.110,264.329 160.736,263.999 161.390 C 263.670 162.045,262.455 164.167,261.300 166.106 C 259.041 169.898,258.996 170.000,259.600 170.000 C 259.820 170.000,260.000 169.838,260.000 169.641 C 260.000 169.443,260.737 168.069,261.637 166.588 C 262.537 165.106,263.586 163.332,263.967 162.647 C 264.349 161.961,265.338 160.185,266.165 158.700 C 266.992 157.215,267.494 156.000,267.281 156.000 C 267.068 156.000,266.793 156.315,266.671 156.700 M174.040 157.876 C 174.018 158.798,174.180 159.664,174.400 159.800 C 174.866 160.088,174.866 158.656,174.400 157.200 C 174.126 156.346,174.074 156.445,174.040 157.876 M131.600 161.031 C 131.600 161.506,140.091 178.409,140.438 178.624 C 140.637 178.747,140.800 178.761,140.800 178.655 C 140.800 178.221,137.816 172.590,137.521 172.467 C 137.344 172.393,137.200 171.988,137.200 171.567 C 137.200 171.145,137.020 170.800,136.800 170.800 C 136.580 170.800,136.400 170.440,136.400 170.000 C 136.400 169.560,136.220 169.200,136.000 169.200 C 135.780 169.200,135.600 168.948,135.600 168.641 C 135.600 168.333,135.060 167.055,134.400 165.800 C 133.740 164.545,133.200 163.267,133.200 162.959 C 133.200 162.652,133.020 162.400,132.800 162.400 C 132.580 162.400,132.400 162.040,132.400 161.600 C 132.400 161.160,132.220 160.800,132.000 160.800 C 131.780 160.800,131.600 160.904,131.600 161.031 M76.400 161.963 C 76.400 162.188,76.655 162.964,76.967 163.686 C 77.278 164.409,77.797 165.630,78.119 166.400 C 79.447 169.573,80.114 171.079,80.837 172.538 C 81.257 173.384,81.600 174.329,81.600 174.638 C 81.600 174.947,81.780 175.200,82.000 175.200 C 82.220 175.200,82.400 175.560,82.400 176.000 C 82.400 176.440,82.580 176.800,82.800 176.800 C 83.020 176.800,83.200 177.160,83.200 177.600 C 83.200 178.040,83.382 178.400,83.605 178.400 C 84.033 178.400,83.750 177.629,81.696 173.200 C 80.528 170.681,79.893 169.241,78.566 166.100 C 78.218 165.275,77.768 164.287,77.566 163.905 C 77.365 163.523,77.200 162.949,77.200 162.629 C 77.200 162.309,77.020 161.936,76.800 161.800 C 76.580 161.664,76.400 161.737,76.400 161.963 M258.256 171.243 C 257.870 171.694,257.618 172.253,257.695 172.486 C 257.773 172.719,258.158 172.419,258.550 171.820 C 259.419 170.494,259.224 170.112,258.256 171.243 M256.471 173.829 C 256.180 174.158,256.009 174.626,256.089 174.868 C 256.170 175.111,256.547 174.835,256.927 174.255 C 257.666 173.128,257.350 172.834,256.471 173.829 M309.445 174.988 C 309.080 175.544,308.922 176.000,309.095 176.000 C 309.484 176.000,310.519 174.386,310.282 174.149 C 310.186 174.053,309.810 174.431,309.445 174.988 M255.000 176.115 C 254.780 176.382,254.345 177.095,254.032 177.700 C 253.720 178.305,253.315 178.800,253.132 178.800 C 252.950 178.800,252.800 179.070,252.800 179.400 C 252.800 179.730,252.659 180.000,252.486 180.000 C 252.314 180.000,251.868 180.515,251.497 181.144 C 251.125 181.774,250.190 182.989,249.420 183.844 C 248.649 184.700,248.014 185.559,248.009 185.753 C 248.004 185.947,247.680 186.397,247.289 186.753 C 246.897 187.109,245.972 188.210,245.232 189.200 C 243.831 191.073,237.325 197.600,236.859 197.600 C 236.712 197.600,236.144 198.005,235.596 198.500 C 234.631 199.372,233.458 200.024,231.800 200.610 C 231.313 200.782,231.192 200.965,231.490 201.077 C 234.168 202.079,246.446 189.627,254.739 177.500 C 255.882 175.828,256.073 174.814,255.000 176.115 M306.017 180.253 C 304.613 182.424,302.228 186.045,300.717 188.300 C 299.205 190.555,298.078 192.400,298.213 192.400 C 298.597 192.400,299.348 191.501,299.968 190.300 C 300.280 189.695,300.685 189.200,300.868 189.200 C 301.050 189.200,301.200 188.958,301.200 188.662 C 301.200 188.366,301.560 187.798,302.000 187.400 C 302.440 187.002,302.800 186.531,302.800 186.353 C 302.800 186.176,303.790 184.577,305.000 182.800 C 306.210 181.023,307.200 179.430,307.200 179.260 C 307.200 179.090,307.573 178.551,308.029 178.061 C 308.484 177.572,308.792 176.977,308.713 176.738 C 308.633 176.500,307.420 178.081,306.017 180.253 M142.418 182.200 C 142.418 182.420,142.770 183.050,143.200 183.600 C 143.630 184.150,143.982 184.420,143.982 184.200 C 143.982 183.980,143.630 183.350,143.200 182.800 C 142.770 182.250,142.418 181.980,142.418 182.200 M146.055 188.500 C 147.343 190.694,153.525 199.806,154.713 201.265 C 156.587 203.564,157.176 204.165,157.187 203.793 C 157.194 203.569,156.475 202.508,155.589 201.436 C 154.703 200.364,153.674 198.972,153.303 198.343 C 152.931 197.714,152.486 197.200,152.314 197.200 C 152.141 197.200,152.000 196.930,152.000 196.600 C 152.000 196.270,151.850 196.000,151.668 196.000 C 151.485 196.000,151.080 195.505,150.768 194.900 C 150.455 194.295,149.885 193.451,149.500 193.025 C 149.115 192.598,148.800 192.096,148.800 191.908 C 148.800 191.720,148.440 191.180,148.000 190.708 C 147.560 190.236,147.200 189.613,147.200 189.325 C 147.200 189.036,147.064 188.800,146.898 188.800 C 146.731 188.800,146.356 188.260,146.064 187.600 C 145.772 186.940,145.373 186.400,145.177 186.400 C 144.981 186.400,145.376 187.345,146.055 188.500 M297.073 193.745 C 296.313 194.905,296.516 195.141,297.461 194.196 C 297.793 193.864,297.997 193.390,297.914 193.142 C 297.831 192.894,297.453 193.165,297.073 193.745 M92.000 194.451 C 92.000 194.897,96.866 203.598,98.047 205.262 C 98.461 205.846,98.800 206.521,98.800 206.762 C 98.800 207.003,98.980 207.200,99.200 207.200 C 99.420 207.200,99.600 207.436,99.600 207.725 C 99.600 208.013,99.960 208.636,100.400 209.108 C 100.840 209.580,101.200 210.162,101.200 210.400 C 101.200 210.638,101.560 211.220,102.000 211.692 C 102.440 212.164,102.800 212.787,102.800 213.075 C 102.800 213.364,102.980 213.600,103.200 213.600 C 103.420 213.600,103.600 213.870,103.600 214.200 C 103.600 214.530,103.780 214.800,104.000 214.800 C 104.220 214.800,104.400 215.070,104.400 215.400 C 104.400 215.730,104.580 216.000,104.800 216.000 C 105.020 216.000,105.200 216.270,105.200 216.600 C 105.200 216.930,105.380 217.200,105.600 217.200 C 105.820 217.200,106.000 217.470,106.000 217.800 C 106.000 218.130,106.186 218.400,106.414 218.400 C 106.924 218.400,106.413 217.391,104.377 214.377 C 102.898 212.188,98.205 204.637,96.747 202.100 C 95.291 199.566,94.390 197.982,93.562 196.500 C 92.727 195.005,92.000 194.051,92.000 194.451 M295.445 196.188 C 295.080 196.744,294.922 197.200,295.095 197.200 C 295.484 197.200,296.519 195.586,296.282 195.349 C 296.186 195.253,295.810 195.631,295.445 196.188 M293.932 198.354 C 293.035 199.402,289.502 204.761,288.811 206.122 C 287.662 208.385,288.207 212.537,289.886 214.315 C 290.153 214.598,290.687 215.363,291.072 216.015 C 291.457 216.667,291.914 217.200,292.086 217.200 C 292.513 217.200,292.485 216.499,292.052 216.333 C 290.892 215.889,288.800 211.543,288.800 209.578 C 288.800 207.525,291.169 202.000,292.050 202.000 C 292.242 202.000,292.400 201.775,292.401 201.500 C 292.401 201.225,292.941 200.370,293.600 199.600 C 294.639 198.385,295.067 197.600,294.689 197.600 C 294.628 197.600,294.287 197.939,293.932 198.354 M227.400 200.400 C 227.798 200.840,228.310 201.200,228.537 201.200 C 228.765 201.200,228.564 200.840,228.092 200.400 C 227.620 199.960,227.108 199.600,226.955 199.600 C 226.801 199.600,227.002 199.960,227.400 200.400 M174.300 204.628 C 174.135 204.796,174.016 205.938,174.036 207.167 C 174.070 209.285,174.092 209.331,174.458 208.058 C 174.885 206.576,174.773 204.148,174.300 204.628 M158.830 206.277 C 164.591 212.672,169.066 215.069,172.004 213.334 C 173.161 212.651,174.320 210.800,173.591 210.800 C 173.376 210.800,173.200 210.993,173.200 211.229 C 173.200 212.619,169.279 214.299,168.600 213.200 C 168.464 212.980,168.081 212.800,167.748 212.800 C 166.793 212.800,163.751 210.536,160.970 207.755 C 158.438 205.223,156.964 204.205,158.830 206.277 M300.674 226.100 C 304.894 230.335,309.164 234.700,310.162 235.800 C 311.160 236.900,311.982 237.570,311.989 237.288 C 312.001 236.740,293.885 218.400,293.332 218.400 C 293.151 218.400,296.455 221.865,300.674 226.100 M108.400 221.395 C 108.400 221.734,112.942 228.194,113.278 228.333 C 113.455 228.407,113.600 228.677,113.600 228.933 C 113.601 229.190,114.066 229.940,114.635 230.600 C 115.204 231.260,115.963 232.295,116.321 232.900 C 116.679 233.505,117.114 234.000,117.286 234.000 C 117.459 234.000,117.600 234.193,117.600 234.429 C 117.600 234.664,117.825 235.086,118.100 235.365 C 118.375 235.645,119.050 236.468,119.600 237.196 C 121.001 239.048,122.794 240.939,122.976 240.755 C 123.060 240.670,122.347 239.700,121.391 238.600 C 119.176 236.052,116.109 231.848,112.137 225.917 C 109.414 221.852,108.400 220.625,108.400 221.395 M230.000 236.280 C 227.477 237.193,224.873 239.600,226.409 239.600 C 226.624 239.600,226.800 239.407,226.800 239.171 C 226.800 235.843,233.524 235.812,240.500 239.107 C 242.645 240.121,244.400 241.096,244.400 241.275 C 244.400 241.454,244.580 241.600,244.800 241.600 C 245.516 241.600,245.222 240.861,244.402 240.601 C 243.964 240.462,243.379 240.133,243.102 239.872 C 242.625 239.419,239.513 237.847,237.800 237.193 C 234.992 236.122,231.552 235.719,230.000 236.280 M313.222 239.476 C 313.980 240.288,314.780 241.163,315.000 241.420 C 315.220 241.677,315.940 242.499,316.600 243.245 C 317.629 244.409,319.805 247.021,322.000 249.727 C 323.790 251.935,324.399 252.559,324.400 252.188 C 324.400 251.962,322.915 250.008,321.100 247.846 C 319.285 245.685,317.350 243.355,316.800 242.668 C 315.403 240.924,312.479 238.000,312.132 238.000 C 311.973 238.000,312.463 238.664,313.222 239.476 M123.669 241.957 C 125.118 244.570,138.631 258.015,139.786 257.992 C 140.014 257.987,139.030 256.953,137.600 255.693 C 134.284 252.772,129.330 247.840,125.854 244.000 C 124.361 242.350,123.378 241.431,123.669 241.957 M225.505 242.000 C 225.033 243.603,225.129 272.631,225.605 272.155 C 225.868 271.892,225.973 266.355,225.905 256.375 C 225.847 247.919,225.667 241.450,225.505 242.000 M245.600 241.895 C 245.600 242.078,246.095 242.520,246.700 242.879 C 247.305 243.237,248.250 243.926,248.800 244.410 C 249.350 244.894,250.430 245.765,251.200 246.344 C 251.970 246.923,253.050 247.848,253.600 248.399 C 254.150 248.949,255.320 250.009,256.200 250.754 C 257.080 251.499,259.555 253.797,261.700 255.861 C 263.845 257.926,265.600 259.452,265.600 259.252 C 265.600 259.053,263.575 256.955,261.100 254.591 C 254.275 248.070,245.600 240.965,245.600 241.895 M325.997 254.900 C 328.883 258.651,329.189 259.006,329.194 258.600 C 329.196 258.380,328.659 257.570,328.000 256.800 C 327.341 256.030,326.801 255.257,326.801 255.082 C 326.800 254.720,324.956 252.800,324.609 252.800 C 324.484 252.800,325.108 253.745,325.997 254.900 M141.200 259.004 C 141.200 259.335,141.994 260.069,144.010 261.600 C 144.734 262.150,145.555 262.825,145.835 263.100 C 146.114 263.375,146.536 263.600,146.771 263.600 C 147.007 263.600,147.200 263.741,147.200 263.914 C 147.200 264.086,147.733 264.543,148.385 264.928 C 149.037 265.313,149.808 265.847,150.098 266.114 C 150.829 266.789,152.859 268.005,153.700 268.271 C 154.085 268.393,154.400 268.630,154.400 268.798 C 154.400 268.966,154.940 269.327,155.600 269.600 C 156.260 269.873,156.800 270.255,156.800 270.449 C 156.800 270.642,157.145 270.800,157.567 270.800 C 157.988 270.800,158.393 270.935,158.467 271.100 C 158.684 271.589,162.834 273.700,163.084 273.449 C 163.211 273.322,162.974 273.093,162.557 272.939 C 162.141 272.784,161.710 272.555,161.600 272.429 C 161.490 272.303,160.260 271.601,158.866 270.870 C 154.872 268.774,146.473 263.167,143.590 260.674 C 141.752 259.084,141.200 258.699,141.200 259.004 M330.312 260.900 C 338.331 272.753,337.846 281.298,329.045 283.212 C 327.664 283.512,321.289 283.615,309.400 283.528 L 291.800 283.400 289.428 282.289 C 286.146 280.752,284.171 279.091,278.668 273.236 C 277.166 271.638,275.861 270.405,275.770 270.497 C 275.401 270.866,282.693 278.532,284.800 279.992 C 285.570 280.525,286.290 281.063,286.400 281.186 C 286.617 281.430,289.522 282.826,291.319 283.549 C 292.787 284.141,329.436 284.189,329.800 283.600 C 329.936 283.380,330.462 283.200,330.968 283.200 C 331.944 283.200,335.162 280.437,335.946 278.926 C 336.506 277.848,336.550 271.340,336.000 271.000 C 335.780 270.864,335.600 270.482,335.600 270.151 C 335.600 269.330,333.310 264.576,331.928 262.528 C 331.308 261.608,330.800 260.740,330.800 260.599 C 330.800 260.271,329.736 259.200,329.409 259.200 C 329.273 259.200,329.679 259.965,330.312 260.900 M266.000 259.813 C 266.000 260.475,275.078 270.255,275.397 269.936 C 275.544 269.790,273.693 267.709,268.945 262.681 C 267.325 260.966,266.000 259.675,266.000 259.813 M165.400 274.800 C 165.536 275.020,165.917 275.200,166.247 275.200 C 166.577 275.200,166.736 275.020,166.600 274.800 C 166.464 274.580,166.083 274.400,165.753 274.400 C 165.423 274.400,165.264 274.580,165.400 274.800 M224.679 276.557 C 224.515 276.974,224.475 277.409,224.591 277.524 C 224.955 277.889,225.276 277.291,225.124 276.531 C 224.983 275.835,224.962 275.836,224.679 276.557 M170.800 277.200 C 170.800 277.420,171.205 277.597,171.700 277.594 C 172.428 277.589,172.485 277.514,172.000 277.200 C 171.224 276.699,170.800 276.699,170.800 277.200 M222.852 279.506 C 222.111 280.258,220.761 281.204,219.852 281.608 C 218.943 282.013,218.479 282.356,218.820 282.372 C 219.606 282.408,221.593 281.498,221.597 281.100 C 221.599 280.935,221.788 280.800,222.018 280.800 C 222.580 280.800,224.493 278.861,224.330 278.458 C 224.258 278.282,223.593 278.753,222.852 279.506 M175.000 278.800 C 175.136 279.020,175.642 279.197,176.124 279.194 C 176.836 279.189,176.888 279.115,176.400 278.800 C 175.612 278.291,174.685 278.291,175.000 278.800 M177.400 279.600 C 177.536 279.820,178.042 279.997,178.524 279.994 C 179.236 279.989,179.288 279.915,178.800 279.600 C 178.012 279.091,177.085 279.091,177.400 279.600 M179.800 280.400 C 179.936 280.620,180.532 280.787,181.124 280.772 C 182.085 280.747,182.114 280.707,181.400 280.400 C 180.289 279.922,179.505 279.922,179.800 280.400 M183.000 281.200 C 183.136 281.420,183.732 281.587,184.324 281.572 C 185.285 281.547,185.314 281.507,184.600 281.200 C 183.489 280.722,182.705 280.722,183.000 281.200 M185.800 282.000 C 185.936 282.220,186.802 282.379,187.724 282.353 C 189.307 282.308,189.333 282.288,188.200 282.000 C 186.425 281.548,185.521 281.548,185.800 282.000 M190.196 282.793 C 190.334 283.017,191.457 283.200,192.690 283.200 C 195.476 283.200,195.319 282.992,192.272 282.649 C 190.733 282.475,190.030 282.524,190.196 282.793 M215.600 282.800 L 214.200 283.095 215.876 283.147 C 216.798 283.176,217.664 283.020,217.800 282.800 C 218.072 282.360,217.691 282.360,215.600 282.800 M195.862 283.700 C 195.964 283.865,199.896 284.000,204.600 284.000 C 209.304 284.000,213.236 283.865,213.338 283.700 C 213.440 283.535,209.508 283.400,204.600 283.400 C 199.692 283.400,195.760 283.535,195.862 283.700 M2.122 309.165 C 2.297 310.314,2.800 310.703,2.800 309.690 C 2.800 309.227,2.619 308.736,2.399 308.599 C 2.169 308.457,2.051 308.699,2.122 309.165 " stroke="none" fill="#348cf4" fill-rule="evenodd"></path></g></svg>