<svg id="svg" xmlns="http://www.w3.org/2000/svg" xmlns:xlink="http://www.w3.org/1999/xlink" width="400" height="400" viewBox="0, 0, 400,400"><g id="svgg"><path id="path0" d="M51.166 41.632 C 41.236 46.380,36.774 59.619,41.761 69.537 C 42.516 71.038,71.831 101.006,106.907 136.133 L 170.681 200.000 106.907 263.867 C 71.831 298.994,42.512 328.965,41.753 330.469 C 34.685 344.474,45.547 361.005,61.153 359.993 C 69.851 359.429,68.431 360.696,136.133 293.093 L 200.000 229.319 263.867 293.093 C 331.406 360.533,330.172 359.430,338.703 359.984 C 354.517 361.010,365.360 344.624,358.239 330.463 C 357.484 328.962,328.169 298.994,293.093 263.867 L 229.319 200.000 293.093 136.133 C 328.169 101.006,357.488 71.035,358.247 69.531 C 365.352 55.453,354.472 38.993,338.737 40.014 C 330.167 40.570,331.442 39.431,263.867 106.907 L 200.000 170.681 136.133 106.907 C 101.006 71.831,71.035 42.509,69.531 41.747 C 64.947 39.424,55.903 39.367,51.166 41.632 " stroke="none" fill="#000000" fill-rule="evenodd"></path></g></svg>