<svg width="445" height="89" viewBox="0 0 445 89" fill="none" xmlns="http://www.w3.org/2000/svg">
<path d="M0.600001 4.99999L0.600001 89L10.8 89L10.8 14.6L42 14.6L42 4.99999L0.600001 4.99999ZM48.8353 63.8L93.2353 63.8L89.6353 54.2L52.4353 54.2L48.8353 63.8ZM70.7953 23.96L85.1953 57.8L86.1553 60.2L98.3953 89L109.795 89L70.7953 0.799998L31.7953 89L43.1953 89L55.6753 59.48L56.6353 57.32L70.7953 23.96ZM179.774 4.99999L122.774 4.99999L122.774 57.8C122.774 61 122.534 63.96 122.054 66.68C121.574 69.4 120.854 71.8 119.894 73.88C118.934 75.88 117.774 77.44 116.414 78.56C115.054 79.68 113.454 80.24 111.614 80.24L111.614 89C116.174 89 119.974 87.68 123.014 85.04C126.134 82.4 128.454 78.88 129.974 74.48C131.574 70.08 132.374 65.32 132.374 60.2L132.374 14.6L169.574 14.6L169.574 89L179.774 89L179.774 4.99999ZM204.638 89L246.998 89L246.998 79.4L204.638 79.4L204.638 89ZM204.638 14.6L246.998 14.6L246.998 4.99999L204.638 4.99999L204.638 14.6ZM204.638 48.2L244.598 48.2L244.598 38.6L204.638 38.6L204.638 48.2ZM198.998 4.99999L198.998 89L209.198 89L209.198 4.99999L198.998 4.99999ZM264.975 4.99999L264.975 89L275.175 89L275.175 4.99999L264.975 4.99999ZM270.615 14.6L287.775 14.6C293.215 14.6 297.615 15.92 300.975 18.56C304.415 21.12 306.135 25 306.135 30.2C306.135 35.32 304.415 39.2 300.975 41.84C297.615 44.48 293.215 45.8 287.775 45.8L270.615 45.8L270.615 55.4L287.775 55.4C293.215 55.4 298.055 54.4 302.295 52.4C306.615 50.32 310.015 47.4 312.495 43.64C315.055 39.8 316.335 35.32 316.335 30.2C316.335 25 315.055 20.52 312.495 16.76C310.015 13 306.615 10.12 302.295 8.12C298.055 6.04 293.215 4.99999 287.775 4.99999L270.615 4.99999L270.615 14.6ZM336.357 89L378.717 89L378.717 79.4L336.357 79.4L336.357 89ZM336.357 14.6L378.717 14.6L378.717 4.99999L336.357 4.99999L336.357 14.6ZM336.357 48.2L376.317 48.2L376.317 38.6L336.357 38.6L336.357 48.2ZM330.717 4.99999L330.717 89L340.917 89L340.917 4.99999L330.717 4.99999ZM429.694 47.6L418.294 47.6L388.294 89L400.894 89L429.694 47.6ZM444.694 4.99999L434.494 4.99999L434.494 89L444.694 89L444.694 4.99999ZM439.054 14L439.054 4.99999L421.894 4.99999C416.534 4.99999 411.694 6.04 407.374 8.12C403.054 10.12 399.614 13 397.054 16.76C394.574 20.52 393.334 25 393.334 30.2C393.334 35.32 394.574 39.8 397.054 43.64C399.614 47.4 403.054 50.32 407.374 52.4C411.694 54.4 416.534 55.4 421.894 55.4L439.054 55.4L439.054 46.4L421.894 46.4C418.294 46.4 415.094 45.76 412.294 44.48C409.574 43.2 407.414 41.36 405.814 38.96C404.294 36.56 403.534 33.64 403.534 30.2C403.534 26.76 404.294 23.84 405.814 21.44C407.414 19.04 409.574 17.2 412.294 15.92C415.094 14.64 418.294 14 421.894 14L439.054 14Z" fill="#0B8882"/>
</svg>
