<svg width="116" height="116" viewBox="0 0 116 116" fill="none" xmlns="http://www.w3.org/2000/svg">
<circle cx="58" cy="58" r="55.5" stroke="#B3B3B3" stroke-width="5"/>
<path d="M39.9375 35H77.0625C79.3454 34.9998 81.5418 35.913 83.2011 37.5521C84.8605 39.1911 85.857 41.4319 85.9863 43.8147L86 44.3438V71.6562C86.0001 74.0429 85.1267 76.3391 83.5589 78.0739C81.9911 79.8087 79.8477 80.8505 77.5685 80.9856L77.0625 81H39.9375C37.6546 81.0002 35.4582 80.087 33.7989 78.4479C32.1395 76.8089 31.143 74.5681 31.0138 72.1852L31 71.6562V44.3438C30.9999 41.9571 31.8733 39.6609 33.4411 37.9261C35.0089 36.1913 37.1523 35.1495 39.4315 35.0144L39.9375 35ZM81.875 50.4474L59.4625 62.7811C59.2094 62.9209 58.9313 63.0041 58.6458 63.0253C58.3603 63.0466 58.0737 63.0056 57.8042 62.9048L57.5403 62.784L35.125 50.4502V71.6562C35.125 72.9189 35.5792 74.1354 36.3974 75.0642C37.2155 75.9931 38.3378 76.5663 39.5415 76.6702L39.9375 76.6875H77.0625C78.2707 76.6874 79.4347 76.2122 80.3232 75.3562C81.2117 74.5003 81.7598 73.3263 81.8585 72.0674L81.875 71.6562V50.4474ZM77.0625 39.3125H39.9375C38.7297 39.3125 37.5661 39.7874 36.6777 40.6427C35.7892 41.498 35.2409 42.6714 35.1415 43.9298L35.125 44.3438V45.5771L58.5 58.437L81.875 45.5743V44.3438C81.8749 43.0806 81.4203 41.8637 80.6016 40.9348C79.7829 40.0059 78.6599 39.433 77.4557 39.3298L77.0625 39.3125Z" fill="#B3B3B3"/>
</svg>
