<svg width="116" height="116" viewBox="0 0 116 116" fill="none" xmlns="http://www.w3.org/2000/svg">
<circle cx="58" cy="58" r="55.5" stroke="#B3B3B3" stroke-width="5"/>
<path d="M46.0857 27H36.5714C34.2981 27 32.118 27.9181 30.5105 29.5524C28.9031 31.1866 28 33.4031 28 35.7143V44.4286C28 68.4931 47.1871 88 70.8571 88H79.4286C81.7019 88 83.882 87.0819 85.4895 85.4476C87.0969 83.8134 88 81.5969 88 79.2857V73.2641C87.9996 72.4552 87.7776 71.6623 87.3591 70.9744C86.9405 70.2864 86.3418 69.7305 85.63 69.3689L75.2757 64.1054C74.7266 63.8262 74.1248 63.6701 73.5111 63.6479C72.8975 63.6256 72.2863 63.7377 71.719 63.9765C71.1517 64.2154 70.6414 64.5753 70.2228 65.0321C69.8043 65.4888 69.4871 66.0317 69.2929 66.6239L68.02 70.5148C67.6204 71.7338 66.7968 72.7625 65.7037 73.4075C64.6107 74.0526 63.3236 74.2697 62.0843 74.0179C57.0676 72.9972 52.4602 70.4896 48.8429 66.8112C45.2256 63.1328 42.7601 58.4482 41.7571 53.3476C41.5095 52.0877 41.723 50.7791 42.3575 49.6679C42.992 48.5566 44.0039 47.7192 45.2029 47.313L49.9514 45.7009C50.9747 45.3538 51.8316 44.6273 52.3512 43.6662C52.8707 42.7051 53.0147 41.5801 52.7543 40.5159L50.2429 30.2984C50.0107 29.3561 49.4755 28.5198 48.7223 27.9222C47.9691 27.3246 47.0411 27 46.0857 27Z" stroke="#B3B3B3" stroke-width="5"/>
</svg>
