<svg width="598" height="231" viewBox="0 0 598 231" fill="none" xmlns="http://www.w3.org/2000/svg">
<g clip-path="url(#clip0_2_27)">
<path d="M0 2.49539H31.6978V8.18627H18.8764V52.3245H12.8215V8.18627H0V2.49539Z" fill="white"/>
<path d="M56.9793 1.78406C71.5065 1.78406 82.2607 12.8948 82.2607 27.4156C82.2607 41.9364 71.5065 53.0471 56.9793 53.0471C42.452 53.0471 31.6978 41.9364 31.6978 27.4156C31.6978 12.8948 42.452 1.78406 56.9793 1.78406ZM56.9793 46.9949C67.8803 46.9949 75.8556 38.6619 75.8556 27.4156C75.8556 16.1693 67.8803 7.83626 56.9793 7.83626C46.0782 7.83626 38.1029 16.1693 38.1029 27.4156C38.1029 38.6619 46.0782 46.9949 56.9793 46.9949Z" fill="white"/>
<path d="M126.193 46.9836C133.242 46.9836 138.732 43.9914 142.222 39.5765V47.5482C138.02 51.2518 133.468 53.0245 126.193 53.0245C112.377 53.0245 101.261 42.2751 101.261 27.393C101.261 12.5109 112.377 1.78406 126.193 1.78406C133.456 1.78406 138.02 3.5681 142.222 7.2604V15.2321C138.732 10.8172 133.253 7.82497 126.193 7.82497C116.365 7.82497 107.678 15.7967 107.678 27.4043C107.678 39.0119 116.365 46.9836 126.193 46.9836Z" fill="white"/>
<path d="M179.681 37.3746H159.596L153.259 52.3245H146.492L169.639 0L192.785 52.3245H186.019L179.681 37.3746ZM162.014 31.6837H177.253L169.627 13.7417L162.002 31.6837H162.014Z" fill="white"/>
<path d="M202.037 52.3245H195.982L202.037 0L221.975 36.0987L241.925 0L247.98 52.3245H241.925L238.219 18.6534L221.975 47.695L205.731 18.6534L202.026 52.3245H202.037Z" fill="white"/>
<path d="M276.819 1.78406C291.347 1.78406 302.101 12.8948 302.101 27.4156C302.101 41.9364 291.347 53.0471 276.819 53.0471C262.292 53.0471 251.538 41.9364 251.538 27.4156C251.538 12.8948 262.292 1.78406 276.819 1.78406ZM276.819 46.9949C287.72 46.9949 295.696 38.6619 295.696 27.4156C295.696 16.1693 287.72 7.83626 276.819 7.83626C265.918 7.83626 257.943 16.1693 257.943 27.4156C257.943 38.6619 265.918 46.9949 276.819 46.9949Z" fill="white"/>
<path d="M339.131 2.49539V8.18627H316.696V22.4248H337.707V28.1156H316.696V46.6223H339.131V52.3132H310.641V2.49539H339.131Z" fill="white"/>
<path d="M366.332 52.3245H360.278L366.332 0L386.271 36.0987L406.22 0L412.275 52.3245H406.22L402.515 18.6534L386.271 47.695L370.026 18.6534L366.321 52.3245H366.332Z" fill="white"/>
<path d="M449.305 2.49539V8.18627H426.87V22.4248H447.882V28.1156H426.87V46.6223H449.305V52.3132H420.815V2.49539H449.305Z" fill="white"/>
<path d="M482.065 46.9836C489.114 46.9836 494.604 43.9914 498.094 39.5765V47.5482C493.892 51.2518 489.339 53.0245 482.065 53.0245C468.249 53.0245 457.133 42.2751 457.133 27.393C457.133 12.5109 468.249 1.76147 482.065 1.76147C489.328 1.76147 493.892 3.54552 498.094 7.23782V15.2096C494.604 10.7946 489.125 7.80239 482.065 7.80239C472.237 7.80239 463.55 15.7741 463.55 27.3817C463.55 38.9893 472.237 46.9611 482.065 46.9611V46.9836Z" fill="white"/>
<path d="M501.641 2.49539H533.339V8.18627H520.518V52.3245H514.463V8.18627H501.641V2.49539Z" fill="white"/>
<path d="M558.621 1.78406C573.148 1.78406 583.902 12.8948 583.902 27.4156C583.902 41.9364 573.148 53.0471 558.621 53.0471C544.093 53.0471 533.339 41.9364 533.339 27.4156C533.339 12.8948 544.093 1.78406 558.621 1.78406ZM558.621 46.9949C569.522 46.9949 577.497 38.6619 577.497 27.4156C577.497 16.1693 569.522 7.83626 558.621 7.83626C547.72 7.83626 539.744 16.1693 539.744 27.4156C539.744 38.6619 547.72 46.9949 558.621 46.9949Z" fill="white"/>
<path d="M592.171 60.6688L593.21 52.7761C592.905 52.8213 592.691 52.8552 592.555 52.8665C592.42 52.8777 592.261 52.889 592.103 52.889C591.019 52.889 590.092 52.6519 589.358 52.1777C588.613 51.7034 588.24 51.1389 588.24 50.4953C588.24 49.7952 588.646 49.208 589.46 48.7225C590.273 48.237 591.267 47.9886 592.453 47.9886C593.64 47.9886 594.645 48.237 595.424 48.7338C596.204 49.2306 596.588 49.8629 596.588 50.6307C596.588 50.7437 596.554 50.8905 596.498 51.0598C596.441 51.2292 596.362 51.4437 596.272 51.7034L592.171 60.6688Z" fill="white"/>
<path d="M11.0366 87.915V109.346L30.6247 87.915H38.1029L16.5267 111.266L39.1761 137.744H31.6978L11.0479 113.535V137.744H4.99304V87.915H11.0479H11.0366Z" fill="white"/>
<path d="M64.096 87.2037C78.6233 87.2037 89.3775 98.3144 89.3775 112.835C89.3775 127.356 78.6233 138.467 64.096 138.467C49.5688 138.467 38.8146 127.356 38.8146 112.835C38.8146 98.3144 49.5688 87.2037 64.096 87.2037ZM64.096 132.415C74.9971 132.415 82.9724 124.081 82.9724 112.835C82.9724 101.589 74.9971 93.2559 64.096 93.2559C53.195 93.2559 45.2197 101.589 45.2197 112.835C45.2197 124.081 53.195 132.415 64.096 132.415Z" fill="white"/>
<path d="M90.8008 87.915H122.499V93.6059H109.677V137.744H103.622V93.6059H90.8008V87.915Z" fill="white"/>
<path d="M147.78 87.2037C162.307 87.2037 173.062 98.3144 173.062 112.835C173.062 127.356 162.307 138.467 147.78 138.467C133.253 138.467 122.499 127.356 122.499 112.835C122.499 98.3144 133.253 87.2037 147.78 87.2037ZM147.78 132.415C158.681 132.415 166.656 124.081 166.656 112.835C166.656 101.589 158.681 93.2559 147.78 93.2559C136.879 93.2559 128.904 101.589 128.904 112.835C128.904 124.081 136.879 132.415 147.78 132.415Z" fill="white"/>
<path d="M195.135 87.915C204.748 87.915 212.091 93.685 212.091 102.865C212.091 112.045 204.759 117.815 195.135 117.815H187.657V137.744H181.602V87.915H195.135ZM187.657 93.6059V112.113H195.135C201.54 112.113 206.036 108.985 206.036 102.854C206.036 96.7223 201.551 93.5946 195.135 93.5946H187.657V93.6059Z" fill="white"/>
<path d="M243.066 87.2037C257.593 87.2037 268.347 98.3144 268.347 112.835C268.347 127.356 257.593 138.467 243.066 138.467C228.538 138.467 217.784 127.356 217.784 112.835C217.784 98.3144 228.538 87.2037 243.066 87.2037ZM243.066 132.415C253.967 132.415 261.942 124.081 261.942 112.835C261.942 101.589 253.967 93.2559 243.066 93.2559C232.165 93.2559 224.189 101.589 224.189 112.835C224.189 124.081 232.165 132.415 243.066 132.415Z" fill="white"/>
<path d="M305.377 87.915V93.6059H282.942V107.844H303.954V113.535H282.942V132.042H305.377V137.733H276.887V87.9037H305.377V87.915Z" fill="white"/>
<path d="M356.075 87.915V93.6059H335.425V107.844H342.904C352.517 107.844 359.86 113.614 359.86 122.794C359.86 131.974 352.528 137.744 342.904 137.744H329.371V87.915H356.075ZM335.425 113.547V132.053H342.904C349.309 132.053 353.805 128.925 353.805 122.794C353.805 116.663 349.32 113.535 342.904 113.535H335.425V113.547Z" fill="white"/>
<path d="M403.871 137.744H397.816V93.6059H375.742V120.66C375.742 129.84 371.54 137.744 363.418 137.744V132.55C367.688 132.55 370.038 126.78 370.038 119.237V87.915H403.871V137.744Z" fill="white"/>
<path d="M421.312 125.007L459.065 85.4196V137.744H453.01V100.652L415.257 140.24V87.9151H421.312V125.007Z" fill="white"/>
<path d="M469.028 124.578H475.151C475.648 129.276 479.207 132.765 487.046 132.765C494.886 132.765 498.512 129.276 498.512 123.867C498.512 117.747 492.74 114.608 484.911 114.608V109.267C492.751 109.267 497.089 105.349 497.089 100.652C497.089 95.9545 493.813 92.68 487.408 92.68C481.353 92.68 476.936 95.9545 476.936 100.302H471.163C471.163 92.5445 477.715 87.2037 487.329 87.2037C496.942 87.2037 503.279 93.4027 503.279 100.449C503.279 105.36 499.721 109.628 493.802 111.763C500.286 113.547 504.703 117.532 504.703 124.578C504.703 133.047 498.083 138.455 487.035 138.455C475.287 138.455 469.017 132.336 469.017 124.578H469.028Z" fill="white"/>
<path d="M519.659 87.915V109.346L539.247 87.915H546.725L525.149 111.266L547.799 137.744H540.32L519.67 113.535V137.744H513.616V87.915H519.67H519.659Z" fill="white"/>
<path d="M572.719 87.2037C587.246 87.2037 598 98.3144 598 112.835C598 127.356 587.246 138.467 572.719 138.467C558.191 138.467 547.437 127.356 547.437 112.835C547.437 98.3144 558.191 87.2037 572.719 87.2037ZM572.719 132.415C583.62 132.415 591.595 124.081 591.595 112.835C591.595 101.589 583.62 93.2559 572.719 93.2559C561.817 93.2559 553.842 101.589 553.842 112.835C553.842 124.081 561.817 132.415 572.719 132.415Z" fill="white"/>
<path d="M11.0366 173.335V194.766L30.6247 173.335H38.1029L16.5267 196.685L39.1761 223.164H31.6978L11.0479 198.955V223.164H4.99304V173.335H11.0479H11.0366Z" fill="white"/>
<path d="M73.0654 208.214H52.9803L46.643 223.164H39.8765L63.0229 170.839L86.1693 223.164H79.4027L73.0654 208.214ZM55.3978 202.523H70.6367L63.0116 184.581L55.3865 202.523H55.3978Z" fill="white"/>
<path d="M115.732 195.545V173.335H121.787V195.545L141.375 173.335H148.853L127.277 196.685L149.926 223.164H142.448L121.787 198.176V223.164H115.732V198.176L94.3592 223.164H86.881L109.53 196.685L87.9541 173.335H95.4324L115.732 195.545Z" fill="white"/>
<path d="M158.455 223.164V231H153.112V217.473H159.517L178.394 170.839L197.27 217.473H203.675V231H198.332V223.164H158.444H158.455ZM165.866 217.473H190.933L178.394 184.581L165.854 217.473H165.866Z" fill="white"/>
<path d="M232.876 172.623C247.403 172.623 258.158 183.734 258.158 198.255C258.158 212.776 247.403 223.886 232.876 223.886C218.349 223.886 207.595 212.776 207.595 198.255C207.595 183.734 218.349 172.623 232.876 172.623ZM232.876 217.834C243.777 217.834 251.753 209.501 251.753 198.255C251.753 187.009 243.777 178.676 232.876 178.676C221.975 178.676 214 187.009 214 198.255C214 209.501 221.975 217.834 232.876 217.834Z" fill="white"/>
<path d="M269.906 223.164H263.851L269.906 170.839L289.844 206.938L309.782 170.839L315.837 223.164H309.782L306.077 189.493L289.833 218.534L273.589 189.493L269.883 223.164H269.906Z" fill="white"/>
<path d="M335.493 223.164H328.727L335.132 208.428L318.684 173.335H326.162L338.916 202.455L352.167 173.335H358.933L335.504 223.164H335.493Z" fill="white"/>
<path d="M369.608 216.4C371.743 216.4 373.528 218.184 373.528 220.318C373.528 222.452 371.743 224.236 369.608 224.236C367.473 224.236 365.689 222.452 365.689 220.318C365.689 218.184 367.473 216.4 369.608 216.4ZM373.167 173.323L371.743 208.914H367.473L366.05 173.323H373.178H373.167Z" fill="white"/>
</g>
<defs>
<clipPath id="clip0_2_27">
<rect width="598" height="231" fill="white"/>
</clipPath>
</defs>
</svg>
