<svg width="137" height="40" viewBox="0 0 137 40" fill="none" xmlns="http://www.w3.org/2000/svg">
<path fill-rule="evenodd" clip-rule="evenodd" d="M98.3252 9.8163C100.258 9.82491 102.191 9.8163 104.133 9.82491C104.133 13.5785 104.133 17.3407 104.133 21.0943C106.851 17.3321 109.595 13.5957 112.296 9.82491C114.255 9.8163 116.214 9.80769 118.173 9.82491C115.429 13.5699 112.719 17.3493 109.975 21.0943C113.073 25.4936 116.188 29.8842 119.286 34.2835C117.094 34.3007 114.903 34.2835 112.702 34.2921C109.854 30.3147 107.05 26.3028 104.141 22.3684C104.107 26.3373 104.141 30.3147 104.124 34.2835H98.3079C98.3252 26.122 98.2906 17.9519 98.3252 9.79047V9.8163ZM58.4566 14.3964C58.4048 19.5532 58.2409 24.8565 56.42 29.7379C59.1556 29.7293 61.8912 29.7551 64.6181 29.7293C64.6009 24.6154 64.6181 19.493 64.6095 14.3878C62.5557 14.405 60.5104 14.3878 58.4566 14.3964ZM53.4601 9.82491C59.1038 9.82491 64.7476 9.82491 70.3913 9.82491C70.3913 16.4626 70.3913 23.1002 70.3913 29.7379H72.9802V39.888C71.1852 39.888 69.3989 39.888 67.6126 39.8794C67.6126 38.0285 67.6039 36.1689 67.6212 34.3179C63.2805 34.2921 58.9399 34.3351 54.6078 34.3007C54.5819 36.1603 54.5819 38.0199 54.6078 39.888C52.8129 39.9053 51.0179 39.888 49.223 39.8967C49.223 36.5133 49.2316 33.1385 49.223 29.7551C49.7925 29.7551 50.3707 29.7465 50.9403 29.7465L51.1129 29.6604C52.0276 27.62 52.5022 25.4161 52.8215 23.2121C53.4515 18.787 53.5033 14.3017 53.4687 9.84213L53.4601 9.82491ZM27.4161 9.82491C29.3578 9.82491 31.2994 9.80769 33.2411 9.83352C33.2238 13.0619 33.2411 16.2818 33.2411 19.5102C35.8299 19.5102 38.4188 19.5102 41.0077 19.5102C41.0163 16.2732 40.9818 13.0361 41.0249 9.79908C42.9493 9.82491 44.8651 9.79908 46.7895 9.8163C46.7895 17.9778 46.7895 26.1392 46.7895 34.3007H41.0077V24.0817C38.4188 24.0817 35.8299 24.0817 33.2411 24.0817C33.2411 27.4909 33.2411 30.8915 33.2411 34.3007H27.4247V9.8163L27.4161 9.82491ZM122.497 12.1924C119.968 14.6288 119.01 18.2447 118.95 21.6539C118.915 24.8909 119.364 28.3518 121.375 31.0034C122.997 33.1901 125.672 34.3782 128.33 34.6709C131.083 34.955 134.077 34.8689 136.476 33.3107C136.468 31.7352 136.476 30.1597 136.476 28.5842C134.397 29.9961 131.747 30.5299 129.288 30.0564C127.467 29.6948 126.121 28.171 125.595 26.4578C124.809 23.9611 124.775 21.2492 125.284 18.6923C125.689 16.6347 127.079 14.5772 129.236 14.1037C131.696 13.5613 134.285 14.2414 136.485 15.395C136.485 13.7679 136.476 12.1494 136.494 10.5309C134.647 9.55803 132.515 9.39445 130.47 9.3428C127.597 9.28254 124.576 10.1434 122.505 12.201L122.497 12.1924ZM81.463 15.6103C80.6691 16.8758 80.4965 18.3996 80.3843 19.846C83.1026 19.8632 85.8123 19.846 88.5306 19.846C88.4875 17.9864 88.4443 15.7652 86.8392 14.5083C85.1651 13.3805 82.5244 13.8196 81.463 15.6016V15.6103ZM77.7178 12.1149C79.8234 9.87657 83.0681 9.07592 86.0539 9.39445C88.6255 9.54942 91.2662 10.7719 92.5779 13.0619C94.6403 16.3506 94.416 20.3969 94.4073 24.1161C89.7388 24.1333 85.0615 24.1161 80.3929 24.1247C80.5483 25.924 80.9021 27.973 82.4468 29.1352C83.8016 30.1511 85.5966 30.2802 87.2362 30.2028C89.7042 30.0478 92.0946 29.2299 94.1916 27.9472C94.1226 29.5226 94.3038 31.1239 94.1053 32.6908C91.3007 34.5159 87.823 34.9808 84.5438 34.7398C81.8082 34.5418 78.995 33.5345 77.1914 31.3822C74.9045 28.722 74.3609 25.0545 74.4213 21.6625C74.5076 18.2619 75.2756 14.6288 77.735 12.1149H77.7178ZM9.00926 1.05219C11.4169 0.415116 13.9195 0.458162 16.3789 0.458162C18.4327 0.458162 20.4779 0.440944 22.5318 0.47538C22.5145 11.7534 22.5318 23.0313 22.5231 34.3093H16.6292C16.6292 24.5638 16.6292 14.8182 16.6292 5.07266C13.8936 5.04684 10.8215 4.823 8.56916 6.66536C6.12699 8.67129 6.23055 12.3818 7.42143 15.0421C9.01789 18.0553 12.2626 19.5619 14.9205 21.4817C12.1677 25.8121 9.20775 30.022 6.37725 34.3007C4.24575 34.3179 2.11425 34.3007 -0.0258789 34.3093C2.52847 30.4783 5.12597 26.6816 7.68894 22.8592C4.88434 20.9135 2.17466 18.4082 1.23404 15.0248C0.371081 11.8308 0.586819 8.18917 2.45943 5.38259C3.92646 3.11839 6.4204 1.68927 8.99201 1.05219H9.00926Z" fill="black"/>
</svg>
