<svg width="39" height="41" viewBox="0 0 39 41" fill="none" xmlns="http://www.w3.org/2000/svg">
<path fill-rule="evenodd" clip-rule="evenodd" d="M5.2081 35.7365C2.56746 32.1293 0.988243 27.7042 0.901947 22.9175C0.962354 23.081 1.02276 23.2446 1.0918 23.4082C2.17049 26.0942 3.8101 28.5651 5.89845 30.5882C7.89188 32.5253 10.2909 34.0319 12.897 34.9875C16.4697 36.3047 20.3961 36.6232 24.1327 35.9603C28.4906 35.2113 32.6069 33.1279 35.7653 30.0458C36.775 31.0962 37.776 32.1551 38.7943 33.1968C35.0405 36.8729 30.1389 39.3351 24.9698 40.2477C21.4317 40.8848 17.7555 40.7987 14.2605 39.9636C11.2143 39.2404 8.29748 37.949 5.74313 36.1325C5.57054 36.012 5.38932 35.8828 5.21672 35.7537L5.2081 35.7365ZM5.00961 9.54747C4.02584 11.6567 3.53396 14.007 3.61163 16.3315C3.68066 18.9228 4.39692 21.497 5.6482 23.7698C7.01167 26.2406 9.01373 28.3671 11.43 29.8392C14.4762 31.7074 18.1265 32.5597 21.6905 32.2412C27.2048 31.8107 32.4343 28.72 35.4806 24.1141C37.1375 21.6433 38.1816 18.7679 38.5268 15.8149C38.941 12.3627 38.3974 8.8243 37.0512 5.6217C36.8182 5.07932 36.5679 4.53694 36.2917 4.01179C33.7115 2.22108 30.7343 0.955539 27.5155 0.370117C28.1541 0.826402 28.7582 1.33434 29.3277 1.88533C31.5196 4.01179 33.0988 6.76671 33.8237 9.72826C34.6694 13.0772 34.376 16.7361 32.8745 19.8612C31.7958 22.1599 30.0785 24.1486 27.9556 25.5433C25.5393 27.1532 22.6139 28.0227 19.7057 27.9022C16.7631 27.7989 13.8635 26.6194 11.7234 24.5963C9.71272 22.6936 8.38377 20.0851 8.04722 17.3387C7.66752 14.4977 8.46143 11.5017 10.2823 9.28919C12.3361 6.76671 15.7016 5.33759 18.9464 5.75944C20.4652 5.95745 21.9322 6.57731 23.1231 7.55014C24.9007 8.99648 25.9794 11.2607 25.9708 13.5507C25.9535 15.1004 25.3926 16.65 24.3398 17.795C23.4855 18.7162 22.3205 19.3447 21.0779 19.5513C20.0768 19.6976 19.0068 19.5857 18.1179 19.0692C17.0047 18.4579 16.2367 17.2527 16.2108 15.9785C16.1935 15.4275 16.3661 14.8679 16.7285 14.4547C17.0565 14.0673 17.5829 13.8434 18.092 13.9037C18.5925 14.8593 19.8352 15.3242 20.8276 14.9024C21.9063 14.4977 22.4931 13.1633 22.053 12.0958C21.6042 11.0541 20.6982 10.2276 19.6367 9.82296C17.5138 9.03953 14.994 9.82296 13.5184 11.4759C12.4828 12.6123 11.896 14.1361 11.8442 15.6686C11.7925 17.1838 12.2153 18.7076 13.0006 19.999C14.2778 22.1513 16.6164 23.5976 19.0844 23.9075C20.7327 24.1314 22.4241 23.8731 23.9601 23.2446C26.2211 22.332 28.0937 20.5586 29.1724 18.3804C30.4409 15.901 30.6308 12.9481 29.8714 10.2879C29.1206 7.6018 27.4206 5.19124 25.1251 3.59855C22.6657 1.86811 19.5677 1.07607 16.5732 1.37739C16.1159 1.42043 15.6499 1.4807 15.2011 1.5754C11.0589 3.19392 7.51218 6.0005 4.98372 9.57329L5.00961 9.54747Z" fill="#080808"/>
</svg>
